<svg width="160" height="120" viewBox="0 0 160 120" fill="none" xmlns="http://www.w3.org/2000/svg">
<g id="Group">
<g id="Group_2">
<path id="Vector" fill-rule="evenodd" clip-rule="evenodd" d="M85.1635 71.5306C82.7749 79.3821 76.297 86.0886 68.2675 91.1328C59.2711 96.7839 48.3422 100.301 39.4681 101.034C36.4201 101.165 33.5011 101.021 30.6935 100.606C26.6429 100.009 22.8439 98.9167 19.1522 97.5759C18.7857 97.4702 18.6925 97.0914 18.944 96.7312C19.1955 96.371 19.6971 96.1642 20.0655 96.2687C23.2961 96.9736 26.5794 97.4965 29.9692 97.7465C33.332 97.9966 36.7769 97.9449 40.372 97.4593C48.4036 96.701 58.2347 93.404 66.3201 88.2574C72.9655 84.0274 78.4357 78.5054 80.5034 72.0166C78.5433 72.1435 76.6302 72.1477 74.8062 71.9706C71.2736 71.6287 68.0607 70.6272 65.4239 68.5794C63.5735 67.1437 61.6252 64.5808 61.3504 61.9005C61.1062 59.5184 62.0609 57.0561 64.8436 54.9328C70.3906 50.7006 75.5117 51.0161 79.399 53.7227C83.7803 56.7735 86.3913 63.0412 85.9918 67.5699C87.9373 67.2985 89.9005 66.9484 91.8349 66.5927C99.8333 65.1203 107.953 61.1936 114.815 55.6086C121.182 50.4285 126.467 43.8242 129.603 36.4094C132.228 30.443 132.406 24.6995 131.591 19.7377C131.024 16.2856 129.909 13.2536 128.697 10.7327C127.595 8.4408 126.538 6.56114 125.258 5.41733C125.194 5.37799 125.2 5.28949 125.27 5.21964C125.341 5.14978 125.449 5.12591 125.513 5.16524C127.304 5.91486 129.331 7.22121 131.078 9.25069C133.039 11.5286 134.579 14.6409 135.511 18.2006C136.903 23.5216 136.637 29.9557 133.953 36.5936C130.47 44.8629 124.57 52.2262 117.479 58.0107C109.691 64.3632 100.463 68.8109 91.3754 70.4961C89.3166 70.8787 87.2308 71.2452 85.1635 71.5306ZM81.2899 68.0428C79.7335 68.1241 78.2152 68.113 76.7593 67.9698C73.9204 67.6905 71.3302 66.8926 69.2136 65.2418C68.0568 64.3389 66.8173 62.8685 66.3197 61.2352C65.9437 60.0039 65.9035 58.6559 67.3829 57.526C70.598 55.0671 73.4786 55.5755 75.7375 57.1429C79.2105 59.5502 81.4151 64.37 81.2899 68.0428Z" fill="#FAB725"/>
</g>
<g id="Group_3">
<path id="Vector_2" fill-rule="evenodd" clip-rule="evenodd" d="M20.7171 96.0819C21.6376 96.8362 22.5736 97.5811 23.4927 98.3444C24.5705 99.2413 25.652 100.136 26.6701 101.085C29.2704 103.514 31.594 106.075 33.9906 108.603C34.2557 108.808 34.191 109.22 33.8502 109.522C33.5085 109.824 33.0155 109.903 32.7505 109.698C30.0445 108.186 27.2555 106.801 24.5415 105.241C23.3883 104.577 22.2519 103.905 21.1809 103.161C18.7832 101.496 16.641 99.6076 14.5284 97.7312C14.2761 97.4976 13.9237 97.0493 13.8128 96.5958C13.6877 96.0884 13.7607 95.5606 14 95.0806C14.2249 94.6274 14.6417 94.0271 15.5544 93.5245C15.9651 93.2986 16.8693 92.9439 18.124 92.6676C22.2594 91.7573 32.2844 90.5609 34.3627 90.2751L38.3963 89.9444C38.6252 89.9396 38.9647 89.8941 39.2724 89.9832C39.6845 90.1014 40.142 90.2372 40.3122 90.4538C40.4414 90.6185 40.0882 90.8054 40.2779 90.7313C40.4234 90.6751 40.2214 90.932 40.1961 90.8604C40.1015 90.5915 39.9901 91.1231 39.863 91.0438C39.5491 90.8459 39.837 91.348 39.4814 91.3983C39.3522 91.4173 39.5457 91.494 39.4122 91.5381C39.2242 91.5999 39.5814 91.6201 39.3823 91.749C39.2604 91.8276 39.5688 91.7609 39.4327 91.8864C39.3314 91.9803 39.7012 91.773 39.5673 91.9374C39.4452 92.0878 39.7158 91.8347 39.7158 91.8347C39.7158 91.8347 39.6554 91.9837 39.8898 91.6109C39.8225 91.5747 39.8233 91.4874 39.8897 91.4162C39.957 91.3443 40.0659 91.3159 40.1322 91.3527C41.1119 90.6321 40.2703 91.2964 40.7019 91.1491C40.8548 91.097 40.67 91.2566 40.7824 91.247C41.3394 91.2003 40.5013 91.5031 40.7138 91.7173C40.7993 91.8036 40.5389 91.7651 40.587 91.8799C40.671 92.0813 40.3205 91.8012 40.2134 92.1472C40.1576 92.3273 40.087 91.9968 39.8278 92.3309C39.6364 92.5777 39.8802 92.4115 39.3331 92.6996C38.9438 92.9039 38.1539 92.8965 37.7895 93.0224L33.7933 93.8181C32.1435 94.1041 25.3553 95.1628 20.7171 96.0819Z" fill="#FAB725"/>
</g>
</g>
</svg>
