<svg width="199" height="103" viewBox="0 0 199 103" fill="none" xmlns="http://www.w3.org/2000/svg">
<g id="arrow svg">
<g id="Group">
<path id="Vector" fill-rule="evenodd" clip-rule="evenodd" d="M198.098 5.14515C197.571 6.27801 197.101 7.40185 196.431 8.50693C190.499 18.2928 180.983 27.2443 170.161 35.5982C158.316 44.7421 144.196 53.0013 128.571 60.1658C106.672 70.2084 82.0162 78.4927 55.9503 83.436C44.4524 85.6164 32.6557 86.8889 20.9307 87.839C20.5313 87.8876 20.1263 87.7347 20.0253 87.4977C19.9244 87.2607 20.1675 87.0295 20.5669 86.9809C31.7442 85.1601 42.6021 82.6265 53.6088 80.01C78.3438 74.1287 102.626 66.6012 124.131 56.8802C139.467 49.949 153.503 42.1023 165.69 33.4747C176.888 25.5458 185.978 16.8234 194.116 7.86087C195.043 6.83991 196.078 5.88238 197.027 4.86916C197.146 4.69947 197.481 4.62332 197.776 4.69949C198.07 4.7756 198.214 4.97541 198.098 5.14515Z" fill="#FAB217"/>
</g>
<g id="Group_2">
<path id="Vector_2" fill-rule="evenodd" clip-rule="evenodd" d="M15.7676 89.7473C25.2207 91.2243 37.9239 92.655 41.4757 93.1372L54.2171 94.8824C58.935 95.6557 62.691 96.6046 61.4011 98.117C61.0012 100.1 54.6966 98.7233 53.0556 98.6557L40.29 97.2837C36.1336 96.8225 15.3479 94.6245 6.92794 93.3264C2.52228 92.647 0.48378 91.1516 0.29512 90.8268C-0.160036 90.0441 -0.126011 88.7055 2.03134 87.4985C4.63264 86.0425 13.1837 83.6668 14.214 83.2972C20.0353 81.3346 25.5858 79.1709 31.1506 77.0163C39.596 73.747 47.9055 70.4369 55.931 66.7796C56.6003 66.4273 57.6537 66.474 58.2838 66.881C58.9138 67.2894 58.8827 67.9074 58.2134 68.2583C53.5004 71.2053 48.8355 74.1095 43.7231 76.787C36.0413 80.8104 27.6606 84.3333 18.9948 87.6827C18.5491 87.8456 17.0071 88.8816 15.7676 89.7473Z" fill="#FAB217"/>
</g>
</g>
</svg>
