<svg width="50" height="45" viewBox="0 0 50 45" fill="none" xmlns="http://www.w3.org/2000/svg">
<g id="code-square-svgrepo-com 1">
<path id="Vector" d="M29.2045 13.8082C29.4278 13.058 28.9332 12.2869 28.0997 12.0859C27.2661 11.8849 26.4093 12.3301 26.1859 13.0802L20.7939 31.1914C20.5705 31.9415 21.0651 32.7125 21.8986 32.9137C22.7322 33.1147 23.5891 32.6694 23.8124 31.9192L29.2045 13.8082Z" fill="#FBF9FA"/>
<path id="Vector_2" d="M33.3958 15.8806C32.7855 15.3315 31.7964 15.3315 31.1862 15.8806C30.576 16.4298 30.576 17.3202 31.1862 17.8694L31.5435 18.1911C32.9637 19.4692 33.9153 20.3299 34.5312 21.0564C35.1195 21.7504 35.2526 22.1544 35.2526 22.5C35.2526 22.8456 35.1195 23.2496 34.5312 23.9436C33.9153 24.6701 32.9637 25.5307 31.5435 26.8089L31.1862 27.1307C30.576 27.6799 30.576 28.5701 31.1862 29.1193C31.7964 29.6685 32.7855 29.6685 33.3958 29.1193L33.8299 28.7287C35.1535 27.5376 36.2572 26.5442 37.0155 25.6496C37.8162 24.7054 38.3776 23.7077 38.3776 22.5C38.3776 21.2923 37.8162 20.2946 37.0155 19.3504C36.2572 18.4558 35.1535 17.4625 33.8299 16.2713L33.3958 15.8806Z" fill="#FBF9FA"/>
<path id="Vector_3" d="M16.6048 15.8806C17.215 15.3315 18.2043 15.3315 18.8145 15.8806C19.4247 16.4298 19.4247 17.3202 18.8145 17.8694L18.4571 18.1911C17.037 19.4692 16.0854 20.3299 15.4694 21.0564C14.881 21.7504 14.748 22.1544 14.748 22.5C14.748 22.8456 14.881 23.2496 15.4694 23.9436C16.0854 24.6701 17.037 25.5307 18.4571 26.8089L18.8145 27.1307C19.4247 27.6799 19.4247 28.5701 18.8145 29.1193C18.2043 29.6685 17.215 29.6685 16.6048 29.1193L16.1708 28.7287C14.8472 27.5376 13.7434 26.5442 12.985 25.6496C12.1845 24.7054 11.623 23.7077 11.623 22.5C11.623 21.2923 12.1845 20.2946 12.985 19.3504C13.7434 18.4558 14.8471 17.4625 16.1707 16.2713L16.6048 15.8806Z" fill="#FBF9FA"/>
<path id="Vector_4" fill-rule="evenodd" clip-rule="evenodd" d="M24.8798 2.34375C20.0707 2.34373 16.3018 2.34371 13.3612 2.69953C10.3514 3.06373 7.97633 3.82374 6.11214 5.50151C4.24795 7.17928 3.4035 9.31682 2.99883 12.0257C2.60347 14.6722 2.6035 18.0642 2.60352 22.3924V22.6076C2.6035 26.9359 2.60347 30.3277 2.99883 32.9743C3.4035 35.6831 4.24795 37.8208 6.11214 39.4986C7.97633 41.1763 10.3514 41.9363 13.3612 42.3006C16.3018 42.6562 20.0707 42.6562 24.8798 42.6562H25.1189C29.9281 42.6562 33.6968 42.6562 36.6375 42.3006C39.6473 41.9363 42.0225 41.1763 43.8866 39.4986C45.7508 37.8208 46.5952 35.6831 47 32.9743C47.3952 30.3277 47.3952 26.9359 47.3952 22.6076V22.3924C47.3952 18.0642 47.3952 14.6722 47 12.0257C46.5952 9.31682 45.7508 7.17928 43.8866 5.50151C42.0225 3.82374 39.6473 3.06373 36.6375 2.69953C33.6968 2.34371 29.9281 2.34373 25.1189 2.34375H24.8798ZM8.32185 7.49025C9.50862 6.42214 11.1143 5.80922 13.7776 5.48694C16.4859 5.15923 20.0447 5.15625 24.9993 5.15625C29.9539 5.15625 33.5127 5.15923 36.221 5.48694C38.8843 5.80922 40.49 6.42214 41.6768 7.49025C42.8637 8.55834 43.5448 10.0034 43.9027 12.4005C44.2668 14.8379 44.2702 18.0408 44.2702 22.5C44.2702 26.9591 44.2668 30.162 43.9027 32.5995C43.5448 34.9965 42.8637 36.4416 41.6768 37.5098C40.49 38.5779 38.8843 39.1909 36.221 39.513C33.5127 39.8408 29.9539 39.8438 24.9993 39.8438C20.0447 39.8438 16.4859 39.8408 13.7776 39.513C11.1143 39.1909 9.50862 38.5779 8.32185 37.5098C7.13506 36.4416 6.45404 34.9965 6.09595 32.5995C5.73183 30.162 5.72852 26.9591 5.72852 22.5C5.72852 18.0408 5.73183 14.8379 6.09595 12.4005C6.45404 10.0034 7.13506 8.55834 8.32185 7.49025Z" fill="#FBF9FA"/>
</g>
</svg>
