<svg width="67" height="65" viewBox="0 0 67 65" fill="none" xmlns="http://www.w3.org/2000/svg">
<g id="facebook svg">
<path id="XMLID_699_" d="M33.5 64C15.5503 64 1 49.8974 1 32.5C1 15.1026 15.5503 1 33.5 1C51.4483 1 66 15.1026 66 32.5C66 49.8974 51.4483 64 33.5 64Z" stroke="#1591EB" stroke-width="0.4321" stroke-miterlimit="10"/>
<path id="XMLID_659_" d="M29.1074 49.383H36.1216V32.3571H41.0151L41.5369 26.6569H36.1216C36.1216 26.6569 36.1216 24.5282 36.1216 23.4096C36.1216 22.0659 36.4 21.5344 37.7416 21.5344C38.8202 21.5344 41.5383 21.5344 41.5383 21.5344V15.6187C41.5383 15.6187 37.536 15.6187 36.6812 15.6187C31.4618 15.6187 29.1074 17.8464 29.1074 22.112C29.1074 25.8271 29.1074 26.6569 29.1074 26.6569H25.459V32.4289H29.1074V49.383Z" fill="#1591EB"/>
</g>
</svg>
