<svg width="52" height="53" viewBox="0 0 52 53" fill="none" xmlns="http://www.w3.org/2000/svg">
<path fill-rule="evenodd" clip-rule="evenodd" d="M25.9989 0.764679C11.641 0.764679 0 12.6983 0 27.422C0 39.2 7.44869 49.1921 17.7789 52.7175C19.0789 52.9641 19.5555 52.1399 19.5555 51.4357C19.5555 50.8004 19.5317 48.7012 19.5209 46.473C12.2888 48.0858 10.7614 43.3275 10.7614 43.3275C9.57843 40.2463 7.87551 39.4266 7.87551 39.4266C5.5161 37.7717 8.05316 37.8072 8.05316 37.8072C10.6639 37.996 12.0375 40.5551 12.0375 40.5551C14.3557 44.6293 18.1191 43.4519 19.6032 42.7699C19.8372 41.0461 20.511 39.8709 21.2541 39.2045C15.4802 38.5314 9.40944 36.2455 9.40944 26.0313C9.40944 23.1213 10.4256 20.7421 12.0895 18.8761C11.8187 18.203 10.9282 15.4928 12.3408 11.8208C12.3408 11.8208 14.5247 11.1055 19.4927 14.5532C21.5661 13.9623 23.789 13.6668 25.9989 13.6557C28.2088 13.6668 30.4339 13.9623 32.5116 14.5532C37.4731 11.1033 39.6548 11.8208 39.6548 11.8208C41.0696 15.4928 40.1792 18.203 39.9105 18.8761C41.5766 20.7421 42.5862 23.1213 42.5862 26.0313C42.5862 36.27 36.5046 38.5247 30.7156 39.1845C31.6472 40.0109 32.4791 41.6347 32.4791 44.1205C32.4791 47.6882 32.4488 50.5583 32.4488 51.4357C32.4488 52.1444 32.9168 52.9774 34.2341 52.7153C44.56 49.1854 52 39.1978 52 27.4242C51.9978 12.7005 40.3568 0.764679 25.9989 0.764679Z" fill="black"/>
<path d="M9.84712 39.0401C9.79078 39.1734 9.58713 39.2134 9.4008 39.1223C9.21231 39.0357 9.10615 38.8535 9.16681 38.7224C9.22314 38.5869 9.4268 38.5492 9.61529 38.6402C9.80378 38.7247 9.91211 38.9068 9.84712 39.0401Z" fill="black"/>
<path d="M10.9001 40.2441C10.7766 40.3618 10.5339 40.3063 10.3693 40.1219C10.1981 39.9353 10.1678 39.6865 10.2934 39.5688C10.4213 39.4511 10.6553 39.5066 10.8264 39.6932C10.9976 39.8776 11.0301 40.1241 10.9001 40.2441Z" fill="black"/>
<path d="M11.9248 41.7791C11.7645 41.8924 11.5045 41.7858 11.3442 41.5503C11.1839 41.3126 11.1839 41.0283 11.3485 40.915C11.5089 40.8017 11.7667 40.9039 11.9292 41.1393C12.0873 41.3793 12.0873 41.6636 11.9248 41.7791Z" fill="black"/>
<path d="M13.3288 43.2631C13.1858 43.4253 12.8825 43.3808 12.6615 43.1609C12.434 42.9454 12.3711 42.6411 12.5141 42.4789C12.6593 42.3168 12.9648 42.3634 13.1879 42.5811C13.4133 42.7966 13.4804 43.1032 13.3288 43.2631Z" fill="black"/>
<path d="M15.2679 44.1227C15.2051 44.3315 14.9126 44.4271 14.6179 44.3382C14.3233 44.2471 14.1304 44.0028 14.1911 43.7917C14.2518 43.5807 14.5464 43.4829 14.8432 43.5785C15.1357 43.6673 15.3285 43.9117 15.2679 44.1227Z" fill="black"/>
<path d="M17.3954 44.2827C17.4019 44.5026 17.1528 44.6848 16.8429 44.6892C16.5331 44.6959 16.2796 44.5181 16.2775 44.3027C16.2775 44.0805 16.5223 43.9006 16.8321 43.8939C17.1419 43.8873 17.3954 44.065 17.3954 44.2827Z" fill="black"/>
<path d="M19.3757 43.9384C19.4126 44.1517 19.1981 44.3738 18.8904 44.4316C18.5893 44.4894 18.3098 44.3561 18.2708 44.1428C18.2339 43.9229 18.4528 43.703 18.7539 43.6452C19.0594 43.5897 19.3367 43.7185 19.3757 43.9384Z" fill="black"/>
</svg>
