<svg width="67" height="65" viewBox="0 0 67 65" fill="none" xmlns="http://www.w3.org/2000/svg">
<g id="insta svg">
<g id="Group">
<path id="XMLID_696_" d="M33.5 64C15.5503 64 1 49.8974 1 32.5C1 15.104 15.5503 1 33.5 1C51.4483 1 66 15.1026 66 32.5C66 49.8974 51.4483 64 33.5 64Z" stroke="#EA5636" stroke-width="0.4321" stroke-miterlimit="10"/>
</g>
<g id="XMLID_649_">
<path id="XMLID_656_" d="M33.5021 19.9458C37.7213 19.9458 38.2207 19.9607 39.8868 20.0352C41.4271 20.103 42.2636 20.3525 42.8204 20.5627C43.5576 20.8406 44.0836 21.1715 44.6376 21.7084C45.1902 22.244 45.5329 22.7538 45.8197 23.4683C46.0365 24.008 46.294 24.8188 46.3639 26.3116C46.4394 27.9265 46.4562 28.4106 46.4562 32.4999C46.4562 36.5893 46.4394 37.0733 46.3639 38.6882C46.294 40.181 46.0365 40.9919 45.8197 41.5315C45.5329 42.2461 45.1916 42.7559 44.6376 43.2928C44.085 43.8284 43.559 44.1606 42.8204 44.4385C42.2636 44.6487 41.4271 44.8982 39.8868 44.966C38.2207 45.0392 37.7213 45.0555 33.5021 45.0555C29.2829 45.0555 28.7835 45.0392 27.1174 44.966C25.5772 44.8982 24.7406 44.6487 24.1838 44.4385C23.4466 44.1606 22.9206 43.8284 22.3666 43.2928C21.814 42.7572 21.4713 42.2474 21.1845 41.5315C20.9691 40.9919 20.7103 40.181 20.6403 38.6882C20.5648 37.0733 20.548 36.5893 20.548 32.4999C20.548 28.4106 20.5634 27.9265 20.6403 26.3116C20.7103 24.8188 20.9691 24.008 21.1845 23.4683C21.4713 22.7538 21.814 22.244 22.3666 21.7084C22.9192 21.1728 23.4452 20.8406 24.1838 20.5627C24.7406 20.3525 25.5772 20.103 27.1174 20.0352C28.7835 19.9607 29.2829 19.9458 33.5021 19.9458ZM33.5021 17.1865C29.2116 17.1865 28.673 17.2042 26.9873 17.2787C25.3058 17.3533 24.1572 17.6123 23.1514 17.9906C22.112 18.3824 21.2307 18.9058 20.3521 19.7573C19.4736 20.6088 18.9336 21.463 18.5307 22.4704C18.1404 23.444 17.8732 24.5571 17.7963 26.1883C17.7193 27.8221 17.7012 28.3428 17.7012 32.5026C17.7012 36.6625 17.7193 37.1832 17.7963 38.817C17.8732 40.4468 18.1404 41.56 18.5307 42.5349C18.9336 43.5423 19.4736 44.3951 20.3521 45.248C21.2307 46.0995 22.112 46.6229 23.1514 47.0147C24.1558 47.393 25.3044 47.652 26.9873 47.7266C28.673 47.8011 29.2102 47.8187 33.5021 47.8187C37.7926 47.8187 38.3312 47.8011 40.0169 47.7266C41.6985 47.652 42.847 47.393 43.8528 47.0147C44.8922 46.6229 45.7736 46.0995 46.6521 45.248C47.5306 44.3965 48.0706 43.5423 48.4749 42.5349C48.8652 41.5613 49.1324 40.4481 49.2093 38.817C49.2863 37.1832 49.3045 36.6625 49.3045 32.5026C49.3045 28.3428 49.2863 27.8221 49.2093 26.1883C49.1324 24.5585 48.8652 23.4453 48.4749 22.4704C48.0706 21.463 47.5306 20.6088 46.6521 19.7573C45.7736 18.9058 44.8922 18.3824 43.8528 17.9906C42.8484 17.6123 41.6999 17.3533 40.0169 17.2787C38.3312 17.2042 37.7926 17.1865 33.5021 17.1865Z" fill="url(#paint0_linear_48_862)"/>
<path id="XMLID_653_" d="M33.5005 24.6372C29.0198 24.6372 25.3867 28.1585 25.3867 32.5014C25.3867 36.8443 29.0198 40.3655 33.5005 40.3655C37.9813 40.3655 41.6143 36.8443 41.6143 32.5014C41.6143 28.1585 37.9813 24.6372 33.5005 24.6372ZM33.5005 37.6049C30.5922 37.6049 28.2336 35.3189 28.2336 32.5C28.2336 29.6811 30.5922 27.3951 33.5005 27.3951C36.4089 27.3951 38.7675 29.6811 38.7675 32.5C38.7675 35.3189 36.4089 37.6049 33.5005 37.6049Z" fill="url(#paint1_linear_48_862)"/>
<path id="XMLID_652_" d="M43.8321 24.3255C43.8321 25.3397 42.983 26.1627 41.9366 26.1627C40.8888 26.1627 40.041 25.3397 40.041 24.3255C40.041 23.3113 40.8902 22.4883 41.9366 22.4883C42.9844 22.4883 43.8321 23.3113 43.8321 24.3255Z" fill="url(#paint2_linear_48_862)"/>
</g>
</g>
<defs>
<linearGradient id="paint0_linear_48_862" x1="18.5" y1="18.5" x2="44.5" y2="54" gradientUnits="userSpaceOnUse">
<stop stop-color="#EB8686"/>
<stop offset="1" stop-color="#DF6D65" stop-opacity="0.42"/>
</linearGradient>
<linearGradient id="paint1_linear_48_862" x1="25.7969" y1="25.3116" x2="39.1466" y2="43.5399" gradientUnits="userSpaceOnUse">
<stop stop-color="#EB8686"/>
<stop offset="1" stop-color="#DF6D65" stop-opacity="0.42"/>
</linearGradient>
<linearGradient id="paint2_linear_48_862" x1="40.1368" y1="22.6458" x2="43.2556" y2="26.9043" gradientUnits="userSpaceOnUse">
<stop stop-color="#EB8686"/>
<stop offset="1" stop-color="#DF6D65" stop-opacity="0.42"/>
</linearGradient>
</defs>
</svg>
