<svg width="63" height="63" viewBox="0 0 63 63" fill="none" xmlns="http://www.w3.org/2000/svg">
<g id="linkedinsvg">
<g id="Group">
<path id="XMLID_682_" d="M31.5 62C14.6549 62 1 48.3451 1 31.5C1 14.6549 14.6549 1 31.5 1C48.3438 1 62 14.6549 62 31.5C62 48.3451 48.3438 62 31.5 62Z" stroke="#1591EB" stroke-width="0.4321" stroke-miterlimit="10"/>
</g>
<g id="XMLID_665_">
<g id="XMLID_667_">
<path id="XMLID_669_" d="M24.081 25.4561H18.4844V43.5379H24.081V25.4561Z" fill="#1591EB"/>
<path id="XMLID_668_" d="M21.255 23.0873C23.0838 23.0873 24.5647 21.5919 24.5647 19.75C24.5647 17.9081 23.0838 16.4141 21.255 16.4141C19.4262 16.4141 17.9453 17.9081 17.9453 19.75C17.9453 21.5919 19.4262 23.0873 21.255 23.0873Z" fill="#1591EB"/>
</g>
<path id="XMLID_666_" d="M33.0264 34.0442C33.0264 31.5025 34.1962 29.9875 36.4372 29.9875C38.4957 29.9875 39.4843 31.4408 39.4843 34.0442C39.4843 36.6489 39.4843 43.536 39.4843 43.536H45.0547C45.0547 43.536 45.0547 36.9311 45.0547 32.088C45.0547 27.2449 42.3096 24.9028 38.4761 24.9028C34.6412 24.9028 33.0278 27.8909 33.0278 27.8909V25.4555H27.6582V43.5373H33.0278C33.0278 43.5373 33.0264 36.83 33.0264 34.0442Z" fill="#1591EB"/>
</g>
</g>
</svg>
