<svg width="172" height="107" viewBox="0 0 172 107" fill="none" xmlns="http://www.w3.org/2000/svg">
<path d="M11.0957 106.5C9.26237 106.5 7.42904 106.25 5.5957 105.75C3.76237 105.25 2.42904 104.25 1.5957 102.75C0.929037 101.417 1.01237 99.75 1.8457 97.75C2.67904 95.9167 3.8457 94.25 5.3457 92.75C6.67904 91.4167 8.3457 90.0833 10.3457 88.75C12.5124 87.4167 14.7624 86.3333 17.0957 85.5H17.5957C18.429 85.5 18.8457 85.8333 18.8457 86.5C18.8457 87 18.5124 87.5 17.8457 88C14.8457 89.5 12.5124 91.3333 10.8457 93.5C9.67904 94.8333 9.0957 96.25 9.0957 97.75C9.0957 100.417 10.679 101.75 13.8457 101.75C17.3457 101.75 21.0957 100.667 25.0957 98.5C29.2624 96.5 33.179 93.8333 36.8457 90.5C40.679 87 43.7624 83.3333 46.0957 79.5C48.429 75.6667 49.5957 72 49.5957 68.5C49.5957 66.1667 48.3457 64.0833 45.8457 62.25C43.3457 60.25 40.5957 58.5 37.5957 57C34.5957 55.3333 32.3457 54 30.8457 53C29.0124 51.6667 27.3457 50.3333 25.8457 49C24.3457 47.5 23.179 45.9167 22.3457 44.25C21.0124 46.5833 19.2624 49.4167 17.0957 52.75C15.0957 55.9167 12.679 59.25 9.8457 62.75C8.8457 63.75 7.8457 64.25 6.8457 64.25C5.8457 64.25 5.3457 63.8333 5.3457 63C5.3457 62.5 5.76237 61.6667 6.5957 60.5C11.0957 55.1667 14.429 50.25 16.5957 45.75C18.7624 41.25 20.2624 37.8333 21.0957 35.5C21.7624 30.6667 24.0124 26.0833 27.8457 21.75C31.679 17.4167 36.3457 13.6667 41.8457 10.5C47.3457 7.16666 52.929 4.58333 58.5957 2.75C64.429 0.916663 69.5957 -4.23193e-06 74.0957 -4.23193e-06C78.5957 -4.23193e-06 82.5957 0.833328 86.0957 2.49999C89.5957 4.16666 91.3457 6.83333 91.3457 10.5C91.3457 12.5 90.7624 14.6667 89.5957 17C88.0957 20.1667 85.5957 23 82.0957 25.5C81.929 25.6667 81.679 25.75 81.3457 25.75C80.0124 25.75 79.3457 25.1667 79.3457 24C79.3457 23.1667 79.7624 22.3333 80.5957 21.5C81.929 20.3333 83.0124 18.9167 83.8457 17.25C84.679 15.5833 85.0957 14 85.0957 12.5C85.0957 9.5 83.3457 8 79.8457 8C77.3457 8 74.429 8.5 71.0957 9.49999C67.7624 10.3333 64.5124 11.4167 61.3457 12.75C58.3457 13.9167 55.8457 15 53.8457 16C49.679 18 45.8457 20.5 42.3457 23.5C38.8457 26.3333 35.5124 29.9167 32.3457 34.25C30.179 37.0833 29.0957 39.75 29.0957 42.25C29.0957 45.25 31.0957 48 35.0957 50.5C39.2624 52.8333 43.3457 55.0833 47.3457 57.25C51.5124 59.4167 55.0124 61.75 57.8457 64.25C60.679 66.75 62.0957 69.75 62.0957 73.25C62.0957 77.0833 59.679 81.6667 54.8457 87C51.8457 90.3333 47.7624 93.5 42.5957 96.5C37.5957 99.5 32.2624 101.917 26.5957 103.75C20.929 105.583 15.7624 106.5 11.0957 106.5ZM107.57 97.75C100.07 97.75 93.5703 96 88.0703 92.5C82.5703 89 79.8203 83.6667 79.8203 76.5C79.8203 72.6667 80.987 68 83.3203 62.5C84.987 58.6667 88.0703 54.25 92.5703 49.25C97.0703 44.25 102.32 39.4167 108.32 34.75C114.32 29.9167 120.404 26 126.57 23C132.737 19.8333 138.32 18.25 143.32 18.25C145.154 18.25 146.82 18.5 148.32 19C151.154 20 153.07 21.5833 154.07 23.75C155.237 25.9167 155.82 28.1667 155.82 30.5C155.82 32.6667 155.487 34.75 154.82 36.75C154.154 38.75 153.32 40.5 152.32 42C149.32 46.5 144.987 50.5 139.32 54C133.82 57.5 128.154 60.25 122.32 62.25C116.654 64.25 111.987 65.4167 108.32 65.75H107.82C105.654 65.75 104.57 65.0833 104.57 63.75C104.57 62.9167 105.237 62.5 106.57 62.5C110.57 62.1667 115.57 60.3333 121.57 57C127.737 53.5 133.154 49.9167 137.82 46.25C139.82 44.5833 142.154 42.25 144.82 39.25C147.654 36.25 149.07 33.3333 149.07 30.5C149.07 27.5 147.654 26 144.82 26C143.32 26 141.737 26.3333 140.07 27C138.57 27.6667 137.32 28.1667 136.32 28.5C131.487 30.8333 126.154 34.5 120.32 39.5C114.487 44.3333 109.154 49.8333 104.32 56C99.6536 62 96.4036 68.0833 94.5703 74.25C94.0703 75.5833 93.737 76.9167 93.5703 78.25C93.4036 79.4167 93.3203 80.5833 93.3203 81.75C93.3203 85.75 94.5703 88.5833 97.0703 90.25C99.737 91.9167 102.904 92.75 106.57 92.75C112.07 92.75 117.737 91.5833 123.57 89.25C129.404 86.75 135.07 83.5833 140.57 79.75C146.07 75.9167 151.07 71.8333 155.57 67.5C160.237 63 164.154 58.6667 167.32 54.5C167.82 53.8333 168.404 53.5 169.07 53.5C169.737 53.3333 170.154 53.4167 170.32 53.75C170.987 53.9167 171.32 54.4167 171.32 55.25C171.32 55.9167 171.154 56.5833 170.82 57.25C166.154 63.75 160.487 70.0833 153.82 76.25C147.32 82.4167 140.07 87.5833 132.07 91.75C124.237 95.75 116.07 97.75 107.57 97.75Z" fill="#F02929"/>
<path d="M5.5957 105.75L4.54323 109.609L4.54323 109.609L5.5957 105.75ZM1.5957 102.75L-1.98201 104.539L-1.94314 104.617L-1.90093 104.693L1.5957 102.75ZM1.8457 97.75L-1.79576 96.0948L-1.82211 96.1528L-1.8466 96.2115L1.8457 97.75ZM5.3457 92.75L2.51728 89.9216L2.51728 89.9216L5.3457 92.75ZM10.3457 88.75L8.24931 85.3434L8.1874 85.3815L8.1269 85.4218L10.3457 88.75ZM17.0957 85.5V81.5H16.4028L15.7504 81.733L17.0957 85.5ZM17.8457 88L19.6346 91.5777L19.9572 91.4164L20.2457 91.2L17.8457 88ZM10.8457 93.5L13.856 96.134L13.9392 96.039L14.0162 95.9388L10.8457 93.5ZM25.0957 98.5L23.3648 94.8939L23.2766 94.9362L23.1906 94.9828L25.0957 98.5ZM36.8457 90.5L39.5364 93.4598L39.5428 93.4539L36.8457 90.5ZM46.0957 79.5L49.5125 81.5798L49.5125 81.5798L46.0957 79.5ZM45.8457 62.25L43.3469 65.3735L43.4125 65.4259L43.4803 65.4756L45.8457 62.25ZM37.5957 57L35.6531 60.4966L35.7291 60.5388L35.8069 60.5777L37.5957 57ZM30.8457 53L28.493 56.2349L28.559 56.2829L28.6269 56.3282L30.8457 53ZM25.8457 49L23.0173 51.8284L23.1004 51.9115L23.1882 51.9896L25.8457 49ZM22.3457 44.25L25.9234 42.4611L22.5809 35.7761L18.8727 42.2654L22.3457 44.25ZM17.0957 52.75L13.7419 50.57L13.7277 50.5919L13.7137 50.614L17.0957 52.75ZM9.8457 62.75L12.6741 65.5784L12.8226 65.43L12.9547 65.2668L9.8457 62.75ZM6.5957 60.5L3.53854 57.9205L3.43452 58.0438L3.34077 58.175L6.5957 60.5ZM16.5957 45.75L20.1997 47.4853L20.1997 47.4853L16.5957 45.75ZM21.0957 35.5L24.8627 36.8453L25.0017 36.456L25.0582 36.0465L21.0957 35.5ZM27.8457 21.75L30.8417 24.4003L30.8417 24.4003L27.8457 21.75ZM41.8457 10.5L43.8416 13.9665L43.8805 13.9441L43.9189 13.9208L41.8457 10.5ZM58.5957 2.75L57.3964 -1.06598L57.3804 -1.06095L57.3644 -1.05578L58.5957 2.75ZM86.0957 2.49999L87.8154 -1.11145L87.8154 -1.11145L86.0957 2.49999ZM89.5957 17L86.018 15.2111L85.999 15.2492L85.9808 15.2876L89.5957 17ZM82.0957 25.5L79.7708 22.2451L79.5013 22.4375L79.2672 22.6716L82.0957 25.5ZM80.5957 21.5L77.9617 18.4897L77.8615 18.5774L77.7673 18.6716L80.5957 21.5ZM71.0957 9.49999L72.0659 13.3806L72.156 13.358L72.2451 13.3313L71.0957 9.49999ZM61.3457 12.75L62.7955 16.478L62.847 16.458L62.8979 16.4365L61.3457 12.75ZM53.8457 16L55.5766 19.6061L55.6057 19.5921L55.6346 19.5777L53.8457 16ZM42.3457 23.5L44.8625 26.609L44.9062 26.5736L44.9489 26.537L42.3457 23.5ZM32.3457 34.25L35.5231 36.6798L35.5496 36.6452L35.5753 36.6101L32.3457 34.25ZM35.0957 50.5L32.9757 53.892L33.0573 53.943L33.1413 53.99L35.0957 50.5ZM47.3457 57.25L45.4406 60.7672L45.4703 60.7833L45.5003 60.7989L47.3457 57.25ZM57.8457 64.25L55.1992 67.2493L55.1992 67.2494L57.8457 64.25ZM54.8457 87L51.8817 84.3139L51.8725 84.3241L54.8457 87ZM42.5957 96.5L40.5872 93.0408L40.5623 93.0553L40.5377 93.07L42.5957 96.5ZM26.5957 103.75L27.827 107.556L27.827 107.556L26.5957 103.75ZM11.0957 102.5C9.63071 102.5 8.15109 102.301 6.64817 101.891L4.54323 109.609C6.70699 110.199 8.89404 110.5 11.0957 110.5V102.5ZM6.64817 101.891C5.7315 101.641 5.34354 101.26 5.09233 100.807L-1.90093 104.693C-0.485465 107.24 1.79324 108.859 4.54323 109.609L6.64817 101.891ZM5.17341 100.961C5.17299 100.96 5.16823 100.952 5.16279 100.924C5.1569 100.894 5.14705 100.823 5.15321 100.7C5.16615 100.441 5.24851 99.9833 5.53801 99.2885L-1.8466 96.2115C-2.91937 98.7862 -3.36925 101.764 -1.98201 104.539L5.17341 100.961ZM5.48717 99.4052C6.11159 98.0315 6.99499 96.7576 8.17413 95.5784L2.51728 89.9216C0.696413 91.7424 -0.753516 93.8018 -1.79576 96.0948L5.48717 99.4052ZM8.17413 95.5784C9.27862 94.4739 10.7271 93.3031 12.5645 92.0782L8.1269 85.4218C5.96428 86.8635 4.07945 88.3594 2.51728 89.9216L8.17413 95.5784ZM12.4421 92.1566C14.378 90.9653 16.3769 90.0042 18.441 89.267L15.7504 81.733C13.1479 82.6625 10.6467 83.868 8.24931 85.3434L12.4421 92.1566ZM17.0957 89.5H17.5957V81.5H17.0957V89.5ZM17.5957 89.5C17.585 89.5 16.8368 89.5153 16.0344 88.8735C15.0616 88.0952 14.8457 87.0495 14.8457 86.5H22.8457C22.8457 85.2838 22.4214 83.7381 21.032 82.6265C19.813 81.6513 18.4397 81.5 17.5957 81.5V89.5ZM14.8457 86.5C14.8457 85.8128 15.0858 85.3037 15.2675 85.0312C15.4289 84.7891 15.5461 84.7247 15.4457 84.8L20.2457 91.2C21.2542 90.4436 22.8457 88.9065 22.8457 86.5H14.8457ZM16.0568 84.4223C12.6365 86.1324 9.78455 88.319 7.67521 91.0612L14.0162 95.9388C15.2402 94.3477 17.0549 92.8676 19.6346 91.5777L16.0568 84.4223ZM7.8354 90.866C6.15257 92.7892 5.0957 95.1108 5.0957 97.75H13.0957C13.0957 97.3892 13.2055 96.8775 13.856 96.134L7.8354 90.866ZM5.0957 97.75C5.0957 99.8974 5.76578 102.175 7.70666 103.81C9.51588 105.333 11.7975 105.75 13.8457 105.75V97.75C13.3217 97.75 13.0074 97.6934 12.8486 97.6488C12.7003 97.6072 12.7437 97.5926 12.8597 97.6904C12.916 97.7378 12.9724 97.7977 13.0214 97.8664C13.0698 97.9344 13.0979 97.9926 13.1118 98.0278C13.138 98.094 13.0957 98.0294 13.0957 97.75H5.0957ZM13.8457 105.75C18.1808 105.75 22.586 104.409 27.0008 102.017L23.1906 94.9828C19.6055 96.9248 16.5106 97.75 13.8457 97.75V105.75ZM26.8266 102.106C31.3672 99.9266 35.6035 97.0351 39.5364 93.4598L34.155 87.5402C30.7546 90.6315 27.1576 93.0734 23.3648 94.8939L26.8266 102.106ZM39.5428 93.4539C43.6134 89.7373 46.9539 85.7832 49.5125 81.5798L42.6789 77.4202C40.5709 80.8834 37.7446 84.2627 34.1486 87.5461L39.5428 93.4539ZM49.5125 81.5798C52.1213 77.2939 53.5957 72.9137 53.5957 68.5H45.5957C45.5957 71.0863 44.7368 74.0395 42.6789 77.4202L49.5125 81.5798ZM53.5957 68.5C53.5957 64.496 51.3705 61.3412 48.2112 59.0244L43.4803 65.4756C45.3209 66.8255 45.5957 67.8373 45.5957 68.5H53.5957ZM48.3445 59.1265C45.6143 56.9424 42.6246 55.0423 39.3846 53.4223L35.8069 60.5777C38.5668 61.9577 41.0771 63.5576 43.3469 65.3735L48.3445 59.1265ZM39.5383 53.5034C36.5647 51.8514 34.4275 50.5805 33.0645 49.6718L28.6269 56.3282C30.2639 57.4195 32.6267 58.8153 35.6531 60.4966L39.5383 53.5034ZM33.1984 49.7651C31.4573 48.4988 29.8941 47.2468 28.5032 46.0104L23.1882 51.9896C24.7973 53.4199 26.5674 54.8345 28.493 56.2349L33.1984 49.7651ZM28.6741 46.1716C27.4367 44.9341 26.5399 43.6942 25.9234 42.4611L18.768 46.0389C19.8182 48.1392 21.2547 50.0658 23.0173 51.8284L28.6741 46.1716ZM18.8727 42.2654C17.5905 44.5094 15.8847 47.2735 13.7419 50.57L20.4495 54.93C22.6401 51.5598 24.4343 48.6573 25.8187 46.2345L18.8727 42.2654ZM13.7137 50.614C11.8119 53.6253 9.49065 56.8313 6.73672 60.2332L12.9547 65.2668C15.8674 61.6687 18.3795 58.208 20.4777 54.886L13.7137 50.614ZM7.01728 59.9216C6.74454 60.1943 6.58596 60.2827 6.55685 60.2973C6.54606 60.3027 6.5697 60.2896 6.62556 60.2757C6.68304 60.2613 6.75871 60.25 6.8457 60.25V68.25C9.28073 68.25 11.2381 67.0144 12.6741 65.5784L7.01728 59.9216ZM6.8457 60.25C6.86041 60.25 7.01632 60.2501 7.26003 60.3178C7.51363 60.3882 7.89387 60.5416 8.28144 60.8646C9.18754 61.6197 9.3457 62.5889 9.3457 63H1.3457C1.3457 64.2444 1.75386 65.8386 3.15997 67.0104C4.42638 68.0657 5.88874 68.25 6.8457 68.25V60.25ZM9.3457 63C9.3457 63.2117 9.32401 63.3821 9.30294 63.5C9.28171 63.6189 9.25731 63.7058 9.24175 63.7556C9.21278 63.8483 9.19811 63.8645 9.23591 63.7889C9.27093 63.7188 9.33499 63.6018 9.44082 63.4325C9.54542 63.2651 9.68032 63.0634 9.85064 62.825L3.34077 58.175C2.85994 58.8482 2.41786 59.5364 2.08049 60.2111C1.79465 60.7828 1.3457 61.7985 1.3457 63H9.3457ZM9.65287 63.0795C14.2911 57.5823 17.8421 52.3818 20.1997 47.4853L12.9917 44.0147C11.016 48.1182 7.90027 52.7511 3.53854 57.9205L9.65287 63.0795ZM20.1997 47.4853C22.3793 42.9584 23.9553 39.3859 24.8627 36.8453L17.3287 34.1547C16.5694 36.2807 15.1454 39.5416 12.9917 44.0147L20.1997 47.4853ZM25.0582 36.0465C25.5984 32.1302 27.432 28.2547 30.8417 24.4003L24.8497 19.0997C20.5927 23.9119 17.9264 29.2032 17.1332 34.9534L25.0582 36.0465ZM30.8417 24.4003C34.3616 20.4213 38.6807 16.9379 43.8416 13.9665L39.8498 7.0335C34.0107 10.3954 28.9965 14.4121 24.8497 19.0997L30.8417 24.4003ZM43.9189 13.9208C49.175 10.7353 54.4773 8.28655 59.827 6.55578L57.3644 -1.05578C51.3808 0.880113 45.5164 3.59807 39.7725 7.0792L43.9189 13.9208ZM59.795 6.56597C65.3695 4.81399 70.1188 4 74.0957 4V-4C69.0726 -4 63.4886 -2.98066 57.3964 -1.06598L59.795 6.56597ZM74.0957 4C78.096 4 81.4931 4.73864 84.376 6.11144L87.8154 -1.11145C83.6983 -3.07198 79.0954 -4 74.0957 -4V4ZM84.376 6.11143C85.6076 6.69793 86.2943 7.34308 86.689 7.94462C87.0749 8.53261 87.3457 9.32676 87.3457 10.5H95.3457C95.3457 8.00657 94.7415 5.63405 93.3774 3.55537C92.0222 1.49024 90.0838 -0.0312706 87.8154 -1.11145L84.376 6.11143ZM87.3457 10.5C87.3457 11.7195 86.9884 13.2704 86.018 15.2111L93.1734 18.7888C94.5364 16.0629 95.3457 13.2805 95.3457 10.5H87.3457ZM85.9808 15.2876C84.8317 17.7134 82.8414 20.0518 79.7708 22.2451L84.4207 28.7549C88.35 25.9482 91.3597 22.62 93.2107 18.7123L85.9808 15.2876ZM79.2672 22.6716C80.1153 21.8235 81.0625 21.75 81.3457 21.75V29.75C82.2956 29.75 83.7428 29.5098 84.9242 28.3284L79.2672 22.6716ZM81.3457 21.75C81.1742 21.75 81.7926 21.7009 82.4797 22.3022C83.2689 22.9927 83.3457 23.8176 83.3457 24H75.3457C75.3457 25.3491 75.7558 27.0489 77.2117 28.3228C78.5655 29.5074 80.1839 29.75 81.3457 29.75V21.75ZM83.3457 24C83.3457 24.1287 83.3292 24.246 83.3044 24.3451C83.28 24.4427 83.2514 24.508 83.2359 24.5389C83.2088 24.5931 83.2347 24.5178 83.4241 24.3284L77.7673 18.6716C76.498 19.9409 75.3457 21.7316 75.3457 24H83.3457ZM83.2297 24.5103C84.974 22.9841 86.37 21.1457 87.4234 19.0389L80.268 15.4611C79.6547 16.6877 78.8841 17.6826 77.9617 18.4897L83.2297 24.5103ZM87.4234 19.0389C88.4686 16.9485 89.0957 14.7532 89.0957 12.5H81.0957C81.0957 13.2468 80.8895 14.2182 80.268 15.4611L87.4234 19.0389ZM89.0957 12.5C89.0957 10.2086 88.3985 7.81268 86.3864 6.08797C84.4922 4.46442 82.0743 4 79.8457 4V12C80.448 12 80.8289 12.066 81.0437 12.1273C81.2471 12.1854 81.2531 12.2247 81.18 12.162C81.1457 12.1326 81.1103 12.0943 81.0805 12.0517C81.0665 12.0316 81.0562 12.0142 81.0492 12.001C81.0422 11.9878 81.0394 11.9806 81.0396 11.981C81.0408 11.9842 81.0957 12.1299 81.0957 12.5H89.0957ZM79.8457 4C76.8374 4 73.5182 4.59713 69.9463 5.66869L72.2451 13.3313C75.3399 12.4029 77.854 12 79.8457 12V4ZM70.1256 5.61942C66.5935 6.50244 63.1489 7.65064 59.7935 9.06345L62.8979 16.4365C65.8758 15.1827 68.9312 14.1642 72.0659 13.3806L70.1256 5.61942ZM59.8959 9.02198C56.826 10.2158 54.2038 11.3488 52.0568 12.4223L55.6346 19.5777C57.4876 18.6512 59.8654 17.6175 62.7955 16.478L59.8959 9.02198ZM52.1148 12.3939C47.6346 14.5444 43.5079 17.2355 39.7425 20.463L44.9489 26.537C48.1835 23.7645 51.7234 21.4556 55.5766 19.6061L52.1148 12.3939ZM39.8289 20.391C36.0143 23.479 32.4492 27.3289 29.1161 31.8899L35.5753 36.6101C38.5755 32.5044 41.6771 29.1876 44.8625 26.609L39.8289 20.391ZM29.1683 31.8202C26.6892 35.0621 25.0957 38.5665 25.0957 42.25H33.0957C33.0957 40.9335 33.6689 39.1046 35.5231 36.6798L29.1683 31.8202ZM25.0957 42.25C25.0957 47.2927 28.5092 51.1004 32.9757 53.892L37.2157 47.108C33.6822 44.8996 33.0957 43.2072 33.0957 42.25H25.0957ZM33.1413 53.99C37.3235 56.3321 41.4233 58.5911 45.4406 60.7672L49.2508 53.7328C45.2681 51.5755 41.2012 49.3346 37.0501 47.01L33.1413 53.99ZM45.5003 60.7989C49.4452 62.8502 52.6601 65.0089 55.1992 67.2493L60.4922 61.2506C57.3647 58.4911 53.5796 55.9831 49.1911 53.7011L45.5003 60.7989ZM55.1992 67.2494C57.2492 69.0582 58.0957 70.9968 58.0957 73.25H66.0957C66.0957 68.5032 64.1089 64.4418 60.4922 61.2506L55.1992 67.2494ZM58.0957 73.25C58.0957 75.5241 56.565 79.1463 51.8818 84.3139L57.8097 89.6861C62.7931 84.1871 66.0957 78.6426 66.0957 73.25H58.0957ZM51.8725 84.3241C49.2264 87.2643 45.5054 90.1851 40.5872 93.0408L44.6042 99.9592C50.0193 96.8149 54.465 93.4024 57.8189 89.6759L51.8725 84.3241ZM40.5377 93.07C35.8037 95.9105 30.7484 98.2024 25.3644 99.9442L27.827 107.556C33.7764 105.631 39.3877 103.09 44.6537 99.93L40.5377 93.07ZM25.3644 99.9442C19.9912 101.683 15.2472 102.5 11.0957 102.5V110.5C16.2775 110.5 21.8669 109.484 27.827 107.556L25.3644 99.9442ZM88.0703 92.5L90.2178 89.1254L90.2178 89.1254L88.0703 92.5ZM83.3203 62.5L79.652 60.9051L79.6449 60.9214L79.638 60.9378L83.3203 62.5ZM92.5703 49.25L89.5971 46.5741L89.5971 46.5741L92.5703 49.25ZM108.32 34.75L110.776 37.9074L110.803 37.8864L110.83 37.865L108.32 34.75ZM126.57 23L128.32 26.5969L128.359 26.578L128.398 26.5583L126.57 23ZM148.32 19L149.652 15.228L149.619 15.2164L149.585 15.2053L148.32 19ZM154.07 23.75L150.438 25.4262L150.49 25.538L150.548 25.6464L154.07 23.75ZM154.82 36.75L158.615 38.0149L158.615 38.0149L154.82 36.75ZM152.32 42L148.992 39.7812L148.992 39.7812L152.32 42ZM139.32 54L137.218 50.5968L137.195 50.6109L137.173 50.6254L139.32 54ZM122.32 62.25L121.023 58.4662L121.006 58.4721L120.989 58.478L122.32 62.25ZM108.32 65.75V69.75H108.502L108.682 69.7336L108.32 65.75ZM106.57 62.5V66.5H106.737L106.902 66.4862L106.57 62.5ZM121.57 57L123.513 60.4966L123.529 60.4878L123.545 60.4787L121.57 57ZM137.82 46.25L140.292 49.3953L140.337 49.3597L140.381 49.3229L137.82 46.25ZM144.82 39.25L141.912 36.5035L141.871 36.5474L141.831 36.5925L144.82 39.25ZM140.07 27L138.585 23.2861L138.515 23.3141L138.446 23.3448L140.07 27ZM136.32 28.5L135.055 24.7053L134.812 24.7863L134.581 24.8978L136.32 28.5ZM120.32 39.5L122.872 42.5801L122.898 42.5588L122.923 42.537L120.32 39.5ZM104.32 56L101.172 53.5325L101.167 53.5383L101.163 53.5442L104.32 56ZM94.5703 74.25L98.3156 75.6545L98.3647 75.5237L98.4045 75.3899L94.5703 74.25ZM93.5703 78.25L97.5301 78.8157L97.5351 78.781L97.5394 78.7461L93.5703 78.25ZM97.0703 90.25L94.8515 93.5782L94.9004 93.6108L94.9503 93.642L97.0703 90.25ZM123.57 89.25L125.056 92.9639L125.101 92.9458L125.146 92.9266L123.57 89.25ZM140.57 79.75L142.857 83.0316L142.857 83.0316L140.57 79.75ZM155.57 67.5L158.345 70.3813L158.347 70.3794L155.57 67.5ZM167.32 54.5L170.505 56.9203L170.513 56.9102L170.52 56.9L167.32 54.5ZM169.07 53.5V57.5H169.563L170.04 57.3806L169.07 53.5ZM170.32 53.75L166.743 55.5389L167.565 57.1844L169.35 57.6306L170.32 53.75ZM170.82 57.25L174.07 59.5828L174.255 59.3239L174.398 59.0389L170.82 57.25ZM153.82 76.25L151.104 73.3136L151.086 73.3308L151.067 73.3481L153.82 76.25ZM132.07 91.75L133.889 95.3124L133.904 95.3051L133.918 95.2977L132.07 91.75ZM107.57 93.75C100.714 93.75 94.9839 92.1583 90.2178 89.1254L85.9228 95.8746C92.1567 99.8417 99.4267 101.75 107.57 101.75V93.75ZM90.2178 89.1254C86.0017 86.4424 83.8203 82.4608 83.8203 76.5H75.8203C75.8203 84.8726 79.1389 91.5576 85.9228 95.8746L90.2178 89.1254ZM83.8203 76.5C83.8203 73.4185 84.7744 69.3145 87.0026 64.0622L79.638 60.9378C77.1996 66.6855 75.8203 71.9149 75.8203 76.5H83.8203ZM86.9886 64.0949C88.4111 60.8232 91.1786 56.7757 95.5435 51.9259L89.5971 46.5741C84.962 51.7243 81.5629 56.5101 79.652 60.9051L86.9886 64.0949ZM95.5435 51.9259C99.8668 47.1222 104.939 42.4475 110.776 37.9074L105.865 31.5926C99.7018 36.3859 94.2739 41.3778 89.5971 46.5741L95.5435 51.9259ZM110.83 37.865C116.624 33.1976 122.455 29.4504 128.32 26.5969L124.82 19.4031C118.352 22.5496 112.017 26.6358 105.811 31.635L110.83 37.865ZM128.398 26.5583C134.205 23.5759 139.153 22.25 143.32 22.25V14.25C137.488 14.25 131.269 16.0907 124.743 19.4417L128.398 26.5583ZM143.32 22.25C144.791 22.25 146.022 22.4504 147.055 22.7947L149.585 15.2053C147.618 14.5496 145.516 14.25 143.32 14.25V22.25ZM146.989 22.772C149.083 23.5111 150.002 24.4797 150.438 25.4262L157.702 22.0738C156.139 18.6869 153.224 16.4889 149.652 15.228L146.989 22.772ZM150.548 25.6464C151.419 27.2631 151.82 28.865 151.82 30.5H159.82C159.82 27.4683 159.055 24.5702 157.592 21.8536L150.548 25.6464ZM151.82 30.5C151.82 32.2488 151.553 33.9043 151.026 35.4851L158.615 38.0149C159.421 35.5957 159.82 33.0845 159.82 30.5H151.82ZM151.026 35.4851C150.453 37.2033 149.765 38.622 148.992 39.7812L155.649 44.2188C156.876 42.378 157.854 40.2967 158.615 38.0149L151.026 35.4851ZM148.992 39.7812C146.376 43.7055 142.506 47.3306 137.218 50.5968L141.422 57.4032C147.468 53.6694 152.265 49.2945 155.649 44.2188L148.992 39.7812ZM137.173 50.6254C131.924 53.9656 126.541 56.5742 121.023 58.4662L123.618 66.0338C129.766 63.9258 135.717 61.0344 141.468 57.3746L137.173 50.6254ZM120.989 58.478C115.465 60.4277 111.153 61.476 107.958 61.7664L108.682 69.7336C112.821 69.3573 117.842 68.0723 123.652 66.022L120.989 58.478ZM108.32 61.75H107.82V69.75H108.32V61.75ZM107.82 61.75C107.472 61.75 107.278 61.7221 107.202 61.7066C107.122 61.6901 107.252 61.7036 107.479 61.8434C107.733 61.9996 108.054 62.2829 108.291 62.7199C108.523 63.1483 108.57 63.533 108.57 63.75H100.57C100.57 65.7244 101.494 67.5537 103.286 68.6566C104.76 69.5635 106.457 69.75 107.82 69.75V61.75ZM108.57 63.75C108.57 64.0823 108.501 64.5681 108.225 65.0855C107.943 65.6132 107.551 65.9793 107.19 66.2045C106.585 66.5826 106.191 66.5 106.57 66.5V58.5C105.616 58.5 104.222 58.6257 102.95 59.4205C101.365 60.4112 100.57 62.054 100.57 63.75H108.57ZM106.902 66.4862C111.734 66.0836 117.32 63.9368 123.513 60.4966L119.628 53.5034C113.82 56.7298 109.407 58.2498 106.238 58.5138L106.902 66.4862ZM123.545 60.4787C129.853 56.8985 135.441 53.2064 140.292 49.3953L135.349 43.1047C130.866 46.627 125.621 50.1015 119.596 53.5213L123.545 60.4787ZM140.381 49.3229C142.593 47.4798 145.074 44.9859 147.81 41.9075L141.831 36.5925C139.234 39.5141 137.048 41.6868 135.26 43.1771L140.381 49.3229ZM147.728 41.9965C150.946 38.5899 153.07 34.7383 153.07 30.5H145.07C145.07 31.9284 144.362 33.9101 141.912 36.5035L147.728 41.9965ZM153.07 30.5C153.07 28.4386 152.588 26.1488 150.916 24.3785C149.203 22.5653 146.914 22 144.82 22V30C145.187 30 145.339 30.0498 145.348 30.0532C145.35 30.0537 145.317 30.0422 145.265 30.0091C145.212 29.9752 145.154 29.9287 145.1 29.8715C144.983 29.7475 144.968 29.6641 144.989 29.7324C145.016 29.8173 145.07 30.0523 145.07 30.5H153.07ZM144.82 22C142.722 22 140.633 22.4668 138.585 23.2861L141.556 30.7139C142.841 30.1999 143.919 30 144.82 30V22ZM138.446 23.3448C137.006 23.9845 135.886 24.4284 135.055 24.7053L137.585 32.2947C138.755 31.9049 140.134 31.3489 141.695 30.6552L138.446 23.3448ZM134.581 24.8978C129.335 27.4306 123.71 31.326 117.717 36.463L122.923 42.537C128.597 37.674 133.639 34.2361 138.059 32.1022L134.581 24.8978ZM117.768 36.4199C111.707 41.4417 106.176 47.1486 101.172 53.5325L107.469 58.4675C112.132 52.518 117.266 47.225 122.872 42.5801L117.768 36.4199ZM101.163 53.5442C96.2451 59.8671 92.7345 66.3885 90.7362 73.1101L98.4045 75.3899C100.073 69.7782 103.062 64.1329 107.478 58.4558L101.163 53.5442ZM90.825 72.8455C90.2217 74.4544 89.8089 76.0921 89.6012 77.7539L97.5394 78.7461C97.665 77.7412 97.919 76.7123 98.3156 75.6545L90.825 72.8455ZM89.6105 77.6843C89.4174 79.0364 89.3203 80.3921 89.3203 81.75H97.3203C97.3203 80.7745 97.3899 79.7969 97.5301 78.8157L89.6105 77.6843ZM89.3203 81.75C89.3203 86.5962 90.8841 90.9333 94.8515 93.5782L99.2891 86.9218C98.2565 86.2334 97.3203 84.9038 97.3203 81.75H89.3203ZM94.9503 93.642C98.3521 95.7681 102.281 96.75 106.57 96.75V88.75C103.527 88.75 101.122 88.0652 99.1903 86.858L94.9503 93.642ZM106.57 96.75C112.646 96.75 118.817 95.4596 125.056 92.9639L122.085 85.5361C116.657 87.7071 111.494 88.75 106.57 88.75V96.75ZM125.146 92.9266C131.243 90.3136 137.147 87.0117 142.857 83.0316L138.283 76.4684C132.994 80.1549 127.564 83.1864 121.995 85.5734L125.146 92.9266ZM142.857 83.0316C148.518 79.0865 153.683 74.8708 158.345 70.3813L152.796 64.6187C148.458 68.7958 143.623 72.7468 138.283 76.4684L142.857 83.0316ZM158.347 70.3794C163.128 65.7692 167.189 61.2834 170.505 56.9203L164.136 52.0797C161.118 56.05 157.346 60.2308 152.794 64.6206L158.347 70.3794ZM170.52 56.9C170.519 56.9016 170.399 57.0619 170.117 57.223C169.81 57.3988 169.439 57.5 169.07 57.5V49.5C166.832 49.5 165.166 50.7054 164.12 52.1L170.52 56.9ZM170.04 57.3806C170.039 57.3809 170.021 57.3854 169.988 57.3911C169.956 57.3967 169.902 57.4046 169.83 57.4101C169.697 57.4204 169.437 57.4275 169.098 57.3598C168.749 57.29 168.289 57.134 167.824 56.8018C167.344 56.4594 166.981 56.0151 166.743 55.5389L173.898 51.9611C173.18 50.526 171.893 49.7604 170.667 49.5152C169.628 49.3073 168.694 49.4709 168.1 49.6194L170.04 57.3806ZM169.35 57.6306C168.867 57.5097 168.207 57.1657 167.742 56.4688C167.332 55.8529 167.32 55.3279 167.32 55.25H175.32C175.32 54.3388 175.142 53.1471 174.399 52.0312C173.601 50.8343 172.441 50.157 171.29 49.8694L169.35 57.6306ZM167.32 55.25C167.32 55.2463 167.321 55.254 167.315 55.2799C167.308 55.3073 167.29 55.367 167.243 55.4611L174.398 59.0389C174.976 57.883 175.32 56.6077 175.32 55.25H167.32ZM167.571 54.9172C163.081 61.1716 157.599 67.3057 151.104 73.3136L156.536 79.1864C163.375 72.861 169.227 66.3284 174.07 59.5828L167.571 54.9172ZM151.067 73.3481C144.839 79.2567 137.894 84.2066 130.223 88.2023L133.918 95.2977C142.246 90.9601 149.801 85.5766 156.573 79.1519L151.067 73.3481ZM130.251 88.1876C122.961 91.9103 115.416 93.75 107.57 93.75V101.75C116.725 101.75 125.513 99.5897 133.889 95.3124L130.251 88.1876Z" fill="url(#paint0_linear_234_85)"/>
<defs>
<linearGradient id="paint0_linear_234_85" x1="76.5" y1="-106" x2="76.5" y2="207" gradientUnits="userSpaceOnUse">
<stop stop-color="#6ABEED"/>
<stop offset="1" stop-color="#5FB1DE" stop-opacity="0"/>
</linearGradient>
</defs>
</svg>
