<svg width="25" height="18" viewBox="0 0 25 18" fill="none" xmlns="http://www.w3.org/2000/svg">
<path d="M1.28572 0C0.575635 0 0 0.575634 0 1.28571V1.28571C0 1.99579 0.575634 2.57143 1.28571 2.57143H23.7143C24.4244 2.57143 25 1.99579 25 1.28571V1.28571C25 0.575634 24.4244 0 23.7143 0H1.28572ZM1.28572 7.71429C0.575635 7.71429 0 8.28992 0 9V9C0 9.71008 0.575634 10.2857 1.28571 10.2857H23.7143C24.4244 10.2857 25 9.71008 25 9V9C25 8.28992 24.4244 7.71429 23.7143 7.71429H1.28572ZM1.28572 15.4286C0.575635 15.4286 0 16.0042 0 16.7143V16.7143C0 17.4244 0.575634 18 1.28571 18H23.7143C24.4244 18 25 17.4244 25 16.7143V16.7143C25 16.0042 24.4244 15.4286 23.7143 15.4286H1.28572Z" fill="#FEFEFE"/>
</svg>
