<svg width="83" height="26" viewBox="0 0 83 26" fill="none" xmlns="http://www.w3.org/2000/svg">
<path d="M5.075 9.4625V9.325H8.825C9.625 9.325 10.3042 9.15 10.8625 8.8C11.4208 8.45 11.8458 7.94583 12.1375 7.2875C12.4375 6.62917 12.5875 5.84583 12.5875 4.9375C12.5875 4.02917 12.4375 3.24167 12.1375 2.575C11.8458 1.9 11.4208 1.37917 10.8625 1.0125C10.3042 0.645833 9.625 0.462499 8.825 0.462499H0.575V0.249999H8.825C10.0833 0.249999 11.1792 0.416666 12.1125 0.75C13.0542 1.075 13.7833 1.58333 14.3 2.275C14.8167 2.96667 15.075 3.85417 15.075 4.9375C15.075 6.02083 14.8333 6.89583 14.35 7.5625C13.8667 8.22083 13.1583 8.70417 12.225 9.0125C11.3 9.3125 10.1667 9.4625 8.825 9.4625H5.075ZM0.575 19V18.7875H8.4625V19H0.575ZM3.325 18.8875V0.387499H5.7V18.8875H3.325ZM14.95 19.125C14.225 19.125 13.6583 18.9917 13.25 18.725C12.85 18.45 12.5583 18.0875 12.375 17.6375C12.1917 17.1792 12.075 16.6667 12.025 16.1C11.9833 15.525 11.9583 14.9375 11.95 14.3375C11.9417 13.7292 11.9083 13.1417 11.85 12.575C11.7917 12.0083 11.6625 11.4958 11.4625 11.0375C11.2625 10.5792 10.9417 10.2167 10.5 9.95C10.0667 9.675 9.46667 9.5375 8.7 9.5375H5.075V9.4125H9.2C10.4167 9.4125 11.3792 9.58333 12.0875 9.925C12.8042 10.2667 13.3417 10.7167 13.7 11.275C14.0583 11.8333 14.2958 12.45 14.4125 13.125C14.5375 13.7917 14.6 14.4625 14.6 15.1375C14.6083 15.8042 14.6208 16.4167 14.6375 16.975C14.6625 17.5333 14.7542 17.9833 14.9125 18.325C15.0708 18.6667 15.3667 18.8375 15.8 18.8375C16.0667 18.8375 16.3083 18.8083 16.525 18.75C16.75 18.6917 16.95 18.6208 17.125 18.5375L17.2 18.725C17 18.8333 16.7083 18.925 16.325 19C15.9417 19.0833 15.4833 19.125 14.95 19.125ZM24.6145 19.25C23.5395 19.25 22.5645 19.0125 21.6895 18.5375C20.8228 18.0542 20.1311 17.3667 19.6145 16.475C19.1061 15.575 18.852 14.5 18.852 13.25C18.852 12 19.0978 10.9292 19.5895 10.0375C20.0811 9.1375 20.752 8.45 21.602 7.975C22.4603 7.49167 23.4311 7.25 24.5145 7.25C25.7478 7.25 26.7353 7.49583 27.477 7.9875C28.2186 8.47917 28.7561 9.12083 29.0895 9.9125C29.4311 10.7042 29.602 11.5542 29.602 12.4625H20.527V12.25H26.952C26.9603 11.7917 26.9353 11.2875 26.877 10.7375C26.827 10.1875 26.7186 9.66667 26.552 9.175C26.3936 8.675 26.152 8.26667 25.827 7.95C25.502 7.625 25.0645 7.4625 24.5145 7.4625C23.9061 7.4625 23.402 7.62917 23.002 7.9625C22.6103 8.2875 22.2978 8.72917 22.0645 9.2875C21.8395 9.84583 21.6811 10.4667 21.5895 11.15C21.5061 11.8333 21.4645 12.5333 21.4645 13.25C21.4645 13.9583 21.5103 14.6583 21.602 15.35C21.702 16.0333 21.8728 16.65 22.1145 17.2C22.3561 17.7417 22.6895 18.1792 23.1145 18.5125C23.5478 18.8375 24.102 19 24.777 19C26.002 19 27.0061 18.6667 27.7895 18C28.5811 17.3333 29.1311 16.5125 29.4395 15.5375H29.6895C29.3645 16.5958 28.7811 17.4792 27.9395 18.1875C27.1061 18.8958 25.9978 19.25 24.6145 19.25ZM41.2617 19.25C40.8701 19.25 40.5034 19.1917 40.1617 19.075C39.8201 18.9583 39.5409 18.7458 39.3242 18.4375C39.1159 18.1208 39.0117 17.675 39.0117 17.1V11.3875C39.0117 10.7875 38.9659 10.1958 38.8742 9.6125C38.7826 9.02083 38.5784 8.53333 38.2617 8.15C37.9451 7.75833 37.4534 7.5625 36.7867 7.5625C36.3534 7.5625 35.9159 7.61667 35.4742 7.725C35.0409 7.825 34.6409 7.975 34.2742 8.175C33.9076 8.36667 33.6117 8.60417 33.3867 8.8875C33.1617 9.17083 33.0492 9.49167 33.0492 9.85H32.8117C32.8117 9.425 32.9492 9.09167 33.2242 8.85C33.5076 8.6 33.8159 8.475 34.1492 8.475C34.5076 8.475 34.8326 8.59167 35.1242 8.825C35.4242 9.05 35.5742 9.375 35.5742 9.8C35.5742 10.3 35.4201 10.6625 35.1117 10.8875C34.8117 11.1125 34.4909 11.225 34.1492 11.225C33.7659 11.225 33.4409 11.1083 33.1742 10.875C32.9159 10.6417 32.7867 10.3 32.7867 9.85C32.7867 9.45833 32.9117 9.10833 33.1617 8.8C33.4117 8.48333 33.7492 8.21667 34.1742 8C34.5992 7.775 35.0784 7.60417 35.6117 7.4875C36.1451 7.3625 36.6951 7.3 37.2617 7.3C38.4117 7.3 39.2701 7.5 39.8367 7.9C40.4034 8.3 40.7784 8.8125 40.9617 9.4375C41.1451 10.0625 41.2367 10.7125 41.2367 11.3875V17.7375C41.2367 18.0292 41.2909 18.2792 41.3992 18.4875C41.5159 18.6958 41.7409 18.8 42.0742 18.8C42.3409 18.8 42.6326 18.6792 42.9492 18.4375C43.2742 18.1958 43.5242 17.875 43.6992 17.475L43.8242 17.6625C43.6076 18.1208 43.2742 18.5 42.8242 18.8C42.3742 19.1 41.8534 19.25 41.2617 19.25ZM35.4742 19.25C34.3909 19.25 33.5242 18.975 32.8742 18.425C32.2326 17.8667 31.9117 17.1125 31.9117 16.1625C31.9117 15.0458 32.3826 14.1833 33.3242 13.575C34.2742 12.9583 35.6367 12.65 37.4117 12.65H40.1742V12.85H37.4117C36.6784 12.85 36.0951 13.0208 35.6617 13.3625C35.2284 13.7042 34.9159 14.1208 34.7242 14.6125C34.5409 15.0958 34.4492 15.5667 34.4492 16.025C34.4492 16.4417 34.5034 16.8667 34.6117 17.3C34.7201 17.725 34.9034 18.0833 35.1617 18.375C35.4284 18.6583 35.7784 18.8 36.2117 18.8C36.6951 18.8 37.1492 18.65 37.5742 18.35C37.9992 18.0417 38.3451 17.5708 38.6117 16.9375C38.8784 16.2958 39.0117 15.4708 39.0117 14.4625H39.1492C39.1492 15.4125 39.0159 16.25 38.7492 16.975C38.4909 17.6917 38.0909 18.25 37.5492 18.65C37.0159 19.05 36.3242 19.25 35.4742 19.25ZM50.7602 19.25C49.6685 19.25 48.6935 19.0125 47.8352 18.5375C46.9768 18.0542 46.3018 17.3667 45.8102 16.475C45.3185 15.575 45.0727 14.5 45.0727 13.25C45.0727 12.1667 45.2935 11.1708 45.7352 10.2625C46.1852 9.35417 46.8435 8.625 47.7102 8.075C48.5768 7.525 49.6393 7.25 50.8977 7.25C51.7477 7.25 52.481 7.4 53.0977 7.7C53.7143 7.99167 54.1852 8.38333 54.5102 8.875C54.8435 9.36667 55.0102 9.90417 55.0102 10.4875C55.0102 10.9375 54.881 11.2875 54.6227 11.5375C54.3643 11.7875 54.0435 11.9125 53.6602 11.9125C53.4518 11.9125 53.2352 11.8667 53.0102 11.775C52.7935 11.6833 52.6102 11.5333 52.4602 11.325C52.3102 11.1167 52.2352 10.8458 52.2352 10.5125C52.2352 10.0792 52.3768 9.74583 52.6602 9.5125C52.9435 9.27917 53.2768 9.1625 53.6602 9.1625C54.0185 9.1625 54.3268 9.275 54.5852 9.5C54.8518 9.725 54.9852 10.0542 54.9852 10.4875H54.7852C54.7852 10.0125 54.681 9.59167 54.4727 9.225C54.2643 8.85 53.981 8.53333 53.6227 8.275C53.2727 8.01667 52.881 7.82083 52.4477 7.6875C52.0227 7.55417 51.5893 7.4875 51.1477 7.4875C50.4143 7.4875 49.8185 7.675 49.3602 8.05C48.9102 8.41667 48.5602 8.89583 48.3102 9.4875C48.0685 10.0792 47.9018 10.7083 47.8102 11.375C47.7268 12.0333 47.6852 12.6583 47.6852 13.25C47.6852 13.9667 47.731 14.6667 47.8227 15.35C47.9227 16.025 48.0893 16.6375 48.3227 17.1875C48.556 17.7292 48.881 18.1625 49.2977 18.4875C49.7227 18.8042 50.2685 18.9625 50.9352 18.9625C51.6685 18.9625 52.2977 18.8167 52.8227 18.525C53.356 18.2333 53.7977 17.8292 54.1477 17.3125C54.506 16.7958 54.7977 16.2042 55.0227 15.5375H55.2602C54.9352 16.5958 54.4185 17.4792 53.7102 18.1875C53.0102 18.8958 52.0268 19.25 50.7602 19.25ZM61.2305 19.175C60.5471 19.175 60.0388 19.025 59.7055 18.725C59.3805 18.425 59.1638 18.05 59.0555 17.6C58.9555 17.1417 58.9055 16.6833 58.9055 16.225V5C59.2805 5 59.6846 4.92083 60.118 4.7625C60.5513 4.60417 60.893 4.43333 61.143 4.25V17.05C61.143 17.675 61.218 18.0958 61.368 18.3125C61.5263 18.5208 61.7763 18.625 62.118 18.625C62.5596 18.625 62.9888 18.4125 63.4055 17.9875C63.8221 17.5542 64.1513 17.0667 64.393 16.525L64.5805 16.625C64.2638 17.375 63.8221 17.9875 63.2555 18.4625C62.6888 18.9375 62.0138 19.175 61.2305 19.175ZM57.1305 7.7125V7.5H63.818V7.7125H57.1305ZM66.2152 25.5C65.5402 25.5 64.9777 25.3708 64.5277 25.1125C64.0694 24.8542 63.7236 24.5167 63.4902 24.1C63.2569 23.6833 63.1402 23.2417 63.1402 22.775C63.1402 22.2583 63.2819 21.8708 63.5652 21.6125C63.8486 21.3542 64.1819 21.225 64.5652 21.225C64.7736 21.225 64.9819 21.2667 65.1902 21.35C65.4069 21.4417 65.5861 21.5833 65.7277 21.775C65.8777 21.975 65.9527 22.2417 65.9527 22.575C65.9527 22.8917 65.8152 23.1958 65.5402 23.4875C65.2736 23.7875 64.9319 23.9375 64.5152 23.9375C64.2736 23.9375 64.0527 23.8917 63.8527 23.8C63.6444 23.7083 63.4777 23.575 63.3527 23.4C63.2277 23.2333 63.1652 23.025 63.1652 22.775H63.3652C63.3652 23.225 63.4736 23.6375 63.6902 24.0125C63.9069 24.3958 64.2194 24.7 64.6277 24.925C65.0277 25.1583 65.5111 25.275 66.0777 25.275C66.6444 25.275 67.0569 25.075 67.3152 24.675C67.5819 24.275 67.7527 23.7417 67.8277 23.075C67.9027 22.4167 67.9319 21.6875 67.9152 20.8875C67.8986 20.0875 67.8902 19.2917 67.8902 18.5V7.7125H65.8277V7.5H70.1277V19.2875C70.1277 20.1042 70.0736 20.8833 69.9652 21.625C69.8652 22.375 69.6736 23.0375 69.3902 23.6125C69.1069 24.1958 68.7111 24.6542 68.2027 24.9875C67.6944 25.3292 67.0319 25.5 66.2152 25.5ZM68.8152 3.0125C68.4069 3.0125 68.0527 2.8625 67.7527 2.5625C67.4611 2.2625 67.3152 1.90833 67.3152 1.5C67.3152 1.08333 67.4611 0.729166 67.7527 0.4375C68.0527 0.145832 68.4069 -1.2517e-06 68.8152 -1.2517e-06C69.2319 -1.2517e-06 69.5819 0.145832 69.8652 0.4375C70.1569 0.729166 70.3027 1.08333 70.3027 1.5C70.3027 1.90833 70.1569 2.2625 69.8652 2.5625C69.5819 2.8625 69.2319 3.0125 68.8152 3.0125ZM73.6621 19.25V15.6875H73.8746C73.9246 16.2958 74.1454 16.8542 74.5371 17.3625C74.9288 17.8625 75.4288 18.2625 76.0371 18.5625C76.6454 18.8542 77.2913 19 77.9746 19C78.4579 19 78.9246 18.925 79.3746 18.775C79.8246 18.625 80.1913 18.3875 80.4746 18.0625C80.7663 17.7292 80.9121 17.2833 80.9121 16.725C80.9121 16.2 80.7454 15.7875 80.4121 15.4875C80.0788 15.1792 79.6496 14.9292 79.1246 14.7375C78.5996 14.5458 78.0413 14.3583 77.4496 14.175C76.8579 13.9917 76.2954 13.7667 75.7621 13.5C75.2371 13.2333 74.8079 12.8708 74.4746 12.4125C74.1413 11.9542 73.9746 11.3458 73.9746 10.5875C73.9746 10.0542 74.0996 9.53333 74.3496 9.025C74.5996 8.51667 74.9788 8.1 75.4871 7.775C76.0038 7.44167 76.6579 7.275 77.4496 7.275C78.0413 7.275 78.5829 7.375 79.0746 7.575C79.5663 7.76667 79.9913 8.02083 80.3496 8.3375L81.3996 7.25H81.5996V10.75H81.3746C81.3579 10.225 81.1788 9.71667 80.8371 9.225C80.5038 8.725 80.0454 8.3125 79.4621 7.9875C78.8871 7.6625 78.2246 7.5 77.4746 7.5C77.0163 7.5 76.6038 7.57083 76.2371 7.7125C75.8788 7.85417 75.5913 8.0625 75.3746 8.3375C75.1579 8.6125 75.0496 8.94583 75.0496 9.3375C75.0496 9.82083 75.2246 10.2125 75.5746 10.5125C75.9329 10.8042 76.3871 11.0542 76.9371 11.2625C77.4871 11.4708 78.0704 11.675 78.6871 11.875C79.3121 12.0667 79.8996 12.3083 80.4496 12.6C81.0079 12.8833 81.4621 13.2542 81.8121 13.7125C82.1704 14.1708 82.3496 14.7625 82.3496 15.4875C82.3496 16.2292 82.1621 16.8833 81.7871 17.45C81.4204 18.0167 80.9204 18.4583 80.2871 18.775C79.6538 19.0917 78.9371 19.25 78.1371 19.25C77.5204 19.25 76.9413 19.15 76.3996 18.95C75.8579 18.7417 75.3829 18.4625 74.9746 18.1125L73.8496 19.25H73.6621Z" fill="#F04B6D"/>
</svg>
