<svg width="491" height="153" viewBox="0 0 491 153" fill="none" xmlns="http://www.w3.org/2000/svg">
<path d="M27.775 56.4V56.1H50.275C55.075 56.1 59.15 55 62.5 52.8C65.85 50.6 68.4 47.5 70.15 43.5C71.9 39.45 72.775 34.7 72.775 29.25C72.775 23.8 71.9 19.025 70.15 14.925C68.4 10.775 65.85 7.55 62.5 5.25C59.15 2.95 55.075 1.8 50.275 1.8H0.775V1.49999H50.275C57.825 1.49999 64.4 2.47499 70 4.42499C75.65 6.32499 80.025 9.32499 83.125 13.425C86.225 17.475 87.775 22.75 87.775 29.25C87.775 35.75 86.325 41 83.425 45C80.525 48.95 76.275 51.85 70.675 53.7C65.125 55.5 58.325 56.4 50.275 56.4H27.775ZM0.775 114V113.7H48.025V114H0.775ZM17.2 113.85V1.65H31.525V113.85H17.2ZM87.025 114.75C82.675 114.75 79.275 113.925 76.825 112.275C74.425 110.625 72.675 108.425 71.575 105.675C70.475 102.875 69.775 99.75 69.475 96.3C69.225 92.85 69.075 89.275 69.025 85.575C68.975 81.875 68.775 78.3 68.425 74.85C68.075 71.4 67.3 68.3 66.1 65.55C64.9 62.75 62.975 60.525 60.325 58.875C57.725 57.225 54.125 56.4 49.525 56.4H27.775V56.1H52.525C59.875 56.1 65.7 57.15 70 59.25C74.35 61.35 77.575 64.125 79.675 67.575C81.825 70.975 83.25 74.75 83.95 78.9C84.65 83 85 87.125 85 91.275C85.05 95.375 85.125 99.15 85.225 102.6C85.325 106 85.85 108.75 86.8 110.85C87.75 112.95 89.55 114 92.2 114C93.8 114 95.3 113.825 96.7 113.475C98.1 113.125 99.325 112.7 100.375 112.2L100.525 112.35C99.325 113 97.6 113.55 95.35 114C93.1 114.5 90.325 114.75 87.025 114.75ZM144.372 115.5C137.822 115.5 131.897 114.075 126.597 111.225C121.347 108.325 117.172 104.2 114.072 98.85C110.972 93.45 109.422 87 109.422 79.5C109.422 72 110.922 65.575 113.922 60.225C116.972 54.825 121.097 50.7 126.297 47.85C131.497 44.95 137.372 43.5 143.922 43.5C151.372 43.5 157.372 45 161.922 48C166.472 50.95 169.772 54.825 171.822 59.625C173.922 64.425 174.972 69.55 174.972 75H119.472V74.7H159.072C159.122 71.75 158.972 68.525 158.622 65.025C158.272 61.475 157.572 58.1 156.522 54.9C155.522 51.65 153.997 49 151.947 46.95C149.947 44.85 147.272 43.8 143.922 43.8C140.222 43.8 137.147 44.85 134.697 46.95C132.297 49 130.397 51.775 128.997 55.275C127.597 58.725 126.597 62.55 125.997 66.75C125.447 70.95 125.172 75.2 125.172 79.5C125.172 83.75 125.447 88 125.997 92.25C126.597 96.45 127.622 100.275 129.072 103.725C130.572 107.125 132.622 109.875 135.222 111.975C137.872 114.025 141.247 115.05 145.347 115.05C153.147 115.05 159.547 112.85 164.547 108.45C169.547 104.05 172.972 98.75 174.822 92.55H175.122C173.172 99.05 169.647 104.5 164.547 108.9C159.447 113.3 152.722 115.5 144.372 115.5ZM244.248 115.5C241.898 115.5 239.673 115.175 237.573 114.525C235.473 113.925 233.748 112.7 232.398 110.85C231.098 109 230.448 106.3 230.448 102.75V68.325C230.448 64.725 230.173 61.1 229.623 57.45C229.123 53.75 227.923 50.675 226.023 48.225C224.173 45.775 221.248 44.55 217.248 44.55C214.448 44.55 211.673 44.9 208.923 45.6C206.173 46.3 203.648 47.3 201.348 48.6C199.098 49.85 197.273 51.375 195.873 53.175C194.523 54.925 193.848 56.9 193.848 59.1H193.698C193.698 56.55 194.523 54.55 196.173 53.1C197.873 51.6 199.723 50.85 201.723 50.85C203.873 50.85 205.823 51.55 207.573 52.95C209.373 54.3 210.273 56.25 210.273 58.8C210.273 61.8 209.348 63.975 207.498 65.325C205.698 66.675 203.773 67.35 201.723 67.35C199.423 67.35 197.473 66.65 195.873 65.25C194.323 63.85 193.548 61.8 193.548 59.1C193.548 56.75 194.273 54.65 195.723 52.8C197.223 50.9 199.223 49.3 201.723 48C204.273 46.65 207.148 45.625 210.348 44.925C213.548 44.175 216.848 43.8 220.248 43.8C227.148 43.8 232.273 45 235.623 47.4C239.023 49.8 241.248 52.875 242.298 56.625C243.398 60.375 243.948 64.275 243.948 68.325V107.175C243.948 108.975 244.298 110.55 244.998 111.9C245.748 113.2 247.198 113.85 249.348 113.85C251.098 113.85 253.023 113 255.123 111.3C257.273 109.6 258.973 107.325 260.223 104.475L260.448 104.625C259.148 107.825 257.048 110.45 254.148 112.5C251.248 114.5 247.948 115.5 244.248 115.5ZM209.673 115.5C203.173 115.5 197.973 113.85 194.073 110.55C190.223 107.2 188.298 102.675 188.298 96.975C188.298 90.275 191.098 85.15 196.698 81.6C202.348 78 210.498 76.2 221.148 76.2H237.423V76.5H221.148C216.748 76.5 213.273 77.6 210.723 79.8C208.223 81.95 206.423 84.55 205.323 87.6C204.273 90.65 203.748 93.55 203.748 96.3C203.748 98.8 204.048 101.425 204.648 104.175C205.248 106.875 206.298 109.175 207.798 111.075C209.298 112.925 211.348 113.85 213.948 113.85C216.948 113.85 219.698 112.95 222.198 111.15C224.698 109.3 226.698 106.4 228.198 102.45C229.698 98.5 230.448 93.325 230.448 86.925H230.748C230.748 92.625 230.048 97.625 228.648 101.925C227.248 106.225 224.998 109.575 221.898 111.975C218.848 114.325 214.773 115.5 209.673 115.5ZM301.164 115.5C294.614 115.5 288.764 114.075 283.614 111.225C278.464 108.325 274.414 104.2 271.464 98.85C268.514 93.45 267.039 87 267.039 79.5C267.039 73 268.364 67.025 271.014 61.575C273.714 56.125 277.664 51.75 282.864 48.45C288.064 45.15 294.439 43.5 301.989 43.5C307.089 43.5 311.489 44.4 315.189 46.2C318.889 48 321.714 50.425 323.664 53.475C325.664 56.525 326.664 59.925 326.664 63.675C326.664 66.375 325.889 68.475 324.339 69.975C322.789 71.475 320.864 72.225 318.564 72.225C317.314 72.225 316.014 71.95 314.664 71.4C313.364 70.8 312.264 69.9 311.364 68.7C310.464 67.45 310.014 65.825 310.014 63.825C310.014 61.175 310.864 59.175 312.564 57.825C314.264 56.425 316.264 55.725 318.564 55.725C320.714 55.725 322.564 56.4 324.114 57.75C325.714 59.05 326.514 61.025 326.514 63.675H326.364C326.364 60.475 325.689 57.65 324.339 55.2C323.039 52.75 321.289 50.7 319.089 49.05C316.889 47.35 314.439 46.075 311.739 45.225C309.039 44.375 306.289 43.95 303.489 43.95C299.039 43.95 295.439 45.125 292.689 47.475C289.939 49.775 287.839 52.775 286.389 56.475C284.939 60.125 283.964 64 283.464 68.1C282.964 72.15 282.714 75.95 282.714 79.5C282.714 83.8 282.964 88.05 283.464 92.25C284.014 96.45 284.964 100.25 286.314 103.65C287.714 107.05 289.689 109.775 292.239 111.825C294.789 113.875 298.089 114.9 302.139 114.9C306.739 114.9 310.689 113.95 313.989 112.05C317.339 110.1 320.139 107.45 322.389 104.1C324.639 100.7 326.439 96.85 327.789 92.55H328.089C326.139 99.05 323.064 104.5 318.864 108.9C314.664 113.3 308.764 115.5 301.164 115.5ZM363.839 115.05C359.739 115.05 356.714 114.15 354.764 112.35C352.864 110.55 351.614 108.3 351.014 105.6C350.464 102.85 350.189 100.1 350.189 97.35V30C352.439 30 354.864 29.525 357.464 28.575C360.114 27.625 362.189 26.6 363.689 25.5V103.2C363.689 106.95 364.139 109.475 365.039 110.775C365.939 112.025 367.389 112.65 369.389 112.65C372.239 112.65 375.014 111.25 377.714 108.45C380.414 105.6 382.514 102.35 384.014 98.7H384.314C382.514 103.5 379.789 107.425 376.139 110.475C372.539 113.525 368.439 115.05 363.839 115.05ZM339.239 45.3V45H379.739V45.3H339.239ZM393.595 153C389.545 153 386.17 152.225 383.47 150.675C380.72 149.125 378.645 147.1 377.245 144.6C375.845 142.1 375.145 139.45 375.145 136.65C375.145 133.55 375.995 131.225 377.695 129.675C379.395 128.125 381.395 127.35 383.695 127.35C384.945 127.35 386.195 127.6 387.445 128.1C388.745 128.65 389.82 129.5 390.67 130.65C391.57 131.85 392.02 133.45 392.02 135.45C392.02 137.35 391.17 139.175 389.47 140.925C387.82 142.725 385.745 143.625 383.245 143.625C381.795 143.625 380.47 143.35 379.27 142.8C378.07 142.25 377.12 141.45 376.42 140.4C375.67 139.4 375.295 138.15 375.295 136.65H375.445C375.445 139.5 376.145 142.125 377.545 144.525C378.945 146.975 380.945 148.925 383.545 150.375C386.095 151.825 389.17 152.55 392.77 152.55C396.17 152.55 398.645 151.3 400.195 148.8C401.795 146.3 402.82 143 403.27 138.9C403.72 134.8 403.895 130.3 403.795 125.4C403.695 120.55 403.645 115.75 403.645 111V45.3H391.57V45H417.07V115.725C417.07 120.625 416.745 125.3 416.095 129.75C415.495 134.25 414.345 138.225 412.645 141.675C410.945 145.175 408.57 147.925 405.52 149.925C402.47 151.975 398.495 153 393.595 153ZM409.195 18.075C406.745 18.075 404.62 17.175 402.82 15.375C401.07 13.575 400.195 11.45 400.195 8.99999C400.195 6.5 401.07 4.375 402.82 2.625C404.62 0.874995 406.745 -7.51019e-06 409.195 -7.51019e-06C411.695 -7.51019e-06 413.795 0.874995 415.495 2.625C417.245 4.375 418.12 6.5 418.12 8.99999C418.12 11.45 417.245 13.575 415.495 15.375C413.795 17.175 411.695 18.075 409.195 18.075ZM438.222 115.5V94.5H438.522C438.622 98.25 439.897 101.7 442.347 104.85C444.847 107.95 448.047 110.425 451.947 112.275C455.847 114.125 459.972 115.05 464.322 115.05C467.322 115.05 470.222 114.6 473.022 113.7C475.872 112.8 478.197 111.325 479.997 109.275C481.847 107.175 482.772 104.35 482.772 100.8C482.772 97.6 481.747 95.1 479.697 93.3C477.647 91.5 474.997 90.05 471.747 88.95C468.497 87.8 465.047 86.7 461.397 85.65C457.747 84.55 454.297 83.2 451.047 81.6C447.797 79.95 445.147 77.725 443.097 74.925C441.047 72.125 440.022 68.4 440.022 63.75C440.022 60.55 440.772 57.425 442.272 54.375C443.822 51.275 446.147 48.725 449.247 46.725C452.347 44.675 456.272 43.65 461.022 43.65C464.672 43.65 467.997 44.25 470.997 45.45C473.997 46.65 476.572 48.225 478.722 50.175L485.472 43.5H485.772V64.5H485.472C485.472 61.25 484.422 58.05 482.322 54.9C480.222 51.75 477.347 49.15 473.697 47.1C470.047 45 465.872 43.95 461.172 43.95C458.272 43.95 455.647 44.4 453.297 45.3C450.997 46.15 449.147 47.425 447.747 49.125C446.397 50.825 445.722 52.9 445.722 55.35C445.722 58.35 446.797 60.75 448.947 62.55C451.147 64.35 453.947 65.875 457.347 67.125C460.797 68.375 464.422 69.6 468.222 70.8C472.072 71.95 475.697 73.4 479.097 75.15C482.547 76.85 485.347 79.1 487.497 81.9C489.697 84.65 490.797 88.25 490.797 92.7C490.797 97.15 489.672 101.1 487.422 104.55C485.172 107.95 482.097 110.625 478.197 112.575C474.347 114.525 469.997 115.5 465.147 115.5C461.347 115.5 457.772 114.875 454.422 113.625C451.072 112.375 448.147 110.675 445.647 108.525L438.522 115.5H438.222Z" fill="#F04B6D"/>
</svg>
