<svg width="146" height="93" viewBox="0 0 146 93" fill="none" xmlns="http://www.w3.org/2000/svg">
<path d="M48.95 21.15L49.7 17.25C49.3 11.85 45.65 9.14999 38.75 9.14999C34.75 9.14999 31.25 10.6 28.25 13.5C25.35 16.3 23.9 19.3 23.9 22.5C23.9 25.6 25.2 28.35 27.8 30.75C30.5 33.05 33.7 35.15 37.4 37.05C41.2 38.85 44.95 40.85 48.65 43.05C52.45 45.15 55.65 47.9 58.25 51.3C60.95 54.7 62.3 58.55 62.3 62.85C62.3 71.75 58.8 78.75 51.8 83.85C44.8 88.95 37.25 91.5 29.15 91.5C21.05 91.5 14.3 90.05 8.9 87.15C3.5 84.15 0.8 79.65 0.8 73.65C0.8 70.45 1.9 67.55 4.1 64.95C6.3 62.35 9.45 61.05 13.55 61.05C15.15 61.05 16.6 61.5 17.9 62.4C19.2 63.3 20 64.5 20.3 66C20.3 67.5 19.4 68.25 17.6 68.25C14.2 68.25 12.5 69.7 12.5 72.6C12.6 75.9 14.15 78.9 17.15 81.6C20.25 84.3 24.55 85.65 30.05 85.65C35.65 85.65 40.4 83.75 44.3 79.95C48.3 76.15 50.3 71.55 50.3 66.15C50.3 62.55 48.95 59.3 46.25 56.4C43.55 53.5 40.3 51.05 36.5 49.05C32.7 46.95 28.85 44.85 24.95 42.75C21.15 40.65 17.9 38.1 15.2 35.1C12.5 32.1 11.15 28.7 11.15 24.9C11.15 18.2 14 12.85 19.7 8.85C25.5 4.85 32.05 2.85 39.35 2.85C44.25 2.85 48.7 3.84999 52.7 5.84999C56.7 7.85 58.75 10.9 58.85 15C58.85 17.4 58.25 19.4 57.05 21C55.85 22.6 54.2 23.4 52.1 23.4C50.1 23.4 49.05 22.65 48.95 21.15ZM113.827 42.75C113.827 41.55 113.027 40.55 111.427 39.75C109.827 38.85 107.977 38.4 105.877 38.4C103.777 38.4 101.727 38.9 99.7273 39.9C103.127 43 106.877 44.55 110.977 44.55C111.877 44.55 112.577 44.35 113.077 43.95C113.577 43.45 113.827 43.05 113.827 42.75ZM120.877 17.7L121.177 13.65C121.177 11.45 120.327 9.4 118.627 7.5C117.027 5.49999 114.827 4.49999 112.027 4.49999C107.227 4.49999 102.877 6.64999 98.9773 10.95C95.0773 15.25 93.1273 19.85 93.1273 24.75C93.1273 29.55 94.3773 33.6 96.8773 36.9C101.177 35 105.177 34.05 108.877 34.05C112.577 34.05 115.527 34.7 117.727 36C120.027 37.2 121.177 39.05 121.177 41.55C121.177 44.05 119.927 45.9 117.427 47.1C115.027 48.3 112.327 48.9 109.327 48.9C103.727 48.9 98.6273 47.35 94.0273 44.25C91.6273 46.75 89.6773 49.7 88.1773 53.1C86.7773 56.5 86.0773 59.65 86.0773 62.55C86.0773 68.45 87.9773 73.85 91.7773 78.75C95.5773 83.65 100.627 86.1 106.927 86.1C120.127 86.1 130.877 77.4 139.177 60C141.977 54.3 143.727 51.45 144.427 51.45C145.227 51.45 145.627 51.85 145.627 52.65C145.627 56.65 143.127 62.7 138.127 70.8C133.227 78.8 127.877 84.4 122.077 87.6C116.377 90.7 109.327 92.25 100.927 92.25C92.6273 92.25 86.0773 89.8 81.2773 84.9C76.4773 80 74.0773 73.9 74.0773 66.6C74.0773 61.8 75.4773 57.2 78.2773 52.8C81.1773 48.3 84.8773 44.45 89.3773 41.25C84.6773 37.35 82.3273 32.65 82.3273 27.15C82.3273 19.55 85.2773 13.15 91.1773 7.94999C97.0773 2.65 104.227 -3.57628e-06 112.627 -3.57628e-06C118.127 -3.57628e-06 122.727 1.45 126.427 4.34999C130.227 7.14999 132.127 10.5 132.127 14.4C132.127 16.6 131.477 18.4 130.177 19.8C128.877 21.2 127.227 21.9 125.227 21.9C122.327 21.9 120.877 20.5 120.877 17.7Z" fill="url(#paint0_linear_1_2)"/>
<path d="M48.95 21.15L47.968 20.9611L47.9436 21.0878L47.9522 21.2165L48.95 21.15ZM49.7 17.25L50.682 17.4388L50.7071 17.3085L50.6973 17.1761L49.7 17.25ZM28.25 13.5L28.9446 14.2194L28.945 14.219L28.25 13.5ZM27.8 30.75L27.1217 31.4848L27.1364 31.4983L27.1515 31.5112L27.8 30.75ZM37.4 37.05L36.9432 37.9396L36.9574 37.9469L36.9719 37.9537L37.4 37.05ZM48.65 43.05L48.1389 43.9095L48.1525 43.9176L48.1663 43.9252L48.65 43.05ZM58.25 51.3L57.4556 51.9074L57.4612 51.9147L57.4669 51.9219L58.25 51.3ZM51.8 83.85L52.3889 84.6582L52.3889 84.6582L51.8 83.85ZM8.9 87.15L8.41436 88.0242L8.42059 88.0276L8.42687 88.031L8.9 87.15ZM4.1 64.95L3.33661 64.3041L3.33661 64.3041L4.1 64.95ZM17.9 62.4L18.4692 61.5778L18.4692 61.5778L17.9 62.4ZM20.3 66H21.3V65.901L21.2806 65.8039L20.3 66ZM12.5 72.6H11.5V72.6151L11.5005 72.6303L12.5 72.6ZM17.15 81.6L16.481 82.3433L16.4871 82.3487L16.4932 82.3541L17.15 81.6ZM44.3 79.95L43.6112 79.2249L43.6021 79.2338L44.3 79.95ZM46.25 56.4L46.9819 55.7186L46.9819 55.7186L46.25 56.4ZM36.5 49.05L36.0163 49.9252L36.0252 49.9302L36.0343 49.9349L36.5 49.05ZM24.95 42.75L24.4663 43.6253L24.4759 43.6305L24.95 42.75ZM19.7 8.85L19.1322 8.02676L19.1256 8.03144L19.7 8.85ZM52.7 5.84999L53.1472 4.95557L53.1472 4.95557L52.7 5.84999ZM58.85 15H59.85V14.9878L59.8497 14.9756L58.85 15ZM57.05 21L57.85 21.6L57.85 21.6L57.05 21ZM49.932 21.3388L50.682 17.4388L48.718 17.0611L47.968 20.9611L49.932 21.3388ZM50.6973 17.1761C50.4803 14.2473 49.3617 11.9278 47.2572 10.371C45.1914 8.84291 42.309 8.14999 38.75 8.14999V10.15C42.091 10.15 44.4836 10.8071 46.0678 11.9789C47.6133 13.1222 48.5197 14.8527 48.7027 17.3239L50.6973 17.1761ZM38.75 8.14999C34.4785 8.14999 30.7325 9.70937 27.555 12.781L28.945 14.219C31.7675 11.4906 35.0215 10.15 38.75 10.15V8.14999ZM27.5554 12.7806C24.5139 15.7172 22.9 18.9622 22.9 22.5H24.9C24.9 19.6378 26.1861 16.8828 28.9446 14.2194L27.5554 12.7806ZM22.9 22.5C22.9 25.9198 24.3486 28.925 27.1217 31.4848L28.4783 30.0152C26.0514 27.775 24.9 25.2802 24.9 22.5H22.9ZM27.1515 31.5112C29.9193 33.869 33.186 36.0102 36.9432 37.9396L37.8568 36.1604C34.214 34.2898 31.0807 32.231 28.4485 29.9888L27.1515 31.5112ZM36.9719 37.9537C40.7429 39.74 44.4652 41.7252 48.1389 43.9095L49.1611 42.1905C45.4348 39.9748 41.6571 37.96 37.8281 36.1463L36.9719 37.9537ZM48.1663 43.9252C51.8472 45.9594 54.9408 48.6188 57.4556 51.9074L59.0444 50.6925C56.3592 47.1812 53.0528 44.3406 49.1337 42.1748L48.1663 43.9252ZM57.4669 51.9219C60.0279 55.1469 61.3 58.7782 61.3 62.85H63.3C63.3 58.3218 61.8721 54.2531 59.0331 50.6781L57.4669 51.9219ZM61.3 62.85C61.3 71.4408 57.9445 78.136 51.2111 83.0418L52.3889 84.6582C59.6555 79.364 63.3 72.0592 63.3 62.85H61.3ZM51.2111 83.0418C44.3696 88.0263 37.0233 90.5 29.15 90.5V92.5C37.4767 92.5 45.2304 89.8737 52.3889 84.6582L51.2111 83.0418ZM29.15 90.5C21.1639 90.5 14.5884 89.0698 9.37313 86.269L8.42687 88.031C14.0116 91.0302 20.9361 92.5 29.15 92.5V90.5ZM9.38564 86.2758C6.81165 84.8458 4.9274 83.0853 3.68249 81.0105C2.43848 78.9372 1.8 76.4952 1.8 73.65H-0.2C-0.2 76.8048 0.511516 79.6128 1.96751 82.0395C3.4226 84.4647 5.58835 86.4542 8.41436 88.0242L9.38564 86.2758ZM1.8 73.65C1.8 70.7025 2.80553 68.028 4.86339 65.5959L3.33661 64.3041C0.994469 67.072 -0.2 70.1975 -0.2 73.65H1.8ZM4.86339 65.5959C6.83458 63.2663 9.67826 62.05 13.55 62.05V60.05C9.22174 60.05 5.76542 61.4336 3.33661 64.3041L4.86339 65.5959ZM13.55 62.05C14.9492 62.05 16.2001 62.4394 17.3308 63.2222L18.4692 61.5778C16.9999 60.5606 15.3508 60.05 13.55 60.05V62.05ZM17.3308 63.2222C18.4257 63.9802 19.0721 64.9596 19.3194 66.1961L21.2806 65.8039C20.9279 64.0404 19.9743 62.6198 18.4692 61.5778L17.3308 63.2222ZM19.3 66C19.3 66.5431 19.1458 66.7851 18.9848 66.9193C18.7889 67.0825 18.3858 67.25 17.6 67.25V69.25C18.6142 69.25 19.5611 69.0425 20.2652 68.4557C21.0042 67.8399 21.3 66.9569 21.3 66H19.3ZM17.6 67.25C15.7813 67.25 14.2307 67.6344 13.1261 68.5767C11.9909 69.5449 11.5 70.9506 11.5 72.6H13.5C13.5 71.3494 13.8591 70.5801 14.4239 70.0983C15.0193 69.5906 16.0187 69.25 17.6 69.25V67.25ZM11.5005 72.6303C11.6105 76.262 13.3265 79.5042 16.481 82.3433L17.819 80.8567C14.9735 78.2958 13.5895 75.538 13.4995 72.5697L11.5005 72.6303ZM16.4932 82.3541C19.8291 85.2595 24.3911 86.65 30.05 86.65V84.65C24.7089 84.65 20.6709 83.3405 17.8068 80.8459L16.4932 82.3541ZM30.05 86.65C35.9025 86.65 40.9053 84.6539 44.9979 80.6662L43.6021 79.2338C39.8947 82.8461 35.3975 84.65 30.05 84.65V86.65ZM44.9888 80.675C49.1826 76.6908 51.3 71.8308 51.3 66.15H49.3C49.3 71.2692 47.4174 75.6092 43.6113 79.225L44.9888 80.675ZM51.3 66.15C51.3 62.2708 49.8354 58.7834 46.9819 55.7186L45.5181 57.0814C48.0646 59.8166 49.3 62.8292 49.3 66.15H51.3ZM46.9819 55.7186C44.1991 52.7296 40.8569 50.2131 36.9657 48.1651L36.0343 49.9349C39.7431 51.8869 42.9009 54.2704 45.5181 57.0814L46.9819 55.7186ZM36.9837 48.1748C33.1804 46.073 29.3272 43.9712 25.4241 41.8695L24.4759 43.6305C28.3728 45.7288 32.2196 47.827 36.0163 49.9252L36.9837 48.1748ZM25.4337 41.8748C21.7237 39.8245 18.5634 37.3423 15.9433 34.431L14.4567 35.769C17.2366 38.8577 20.5763 41.4755 24.4663 43.6252L25.4337 41.8748ZM15.9433 34.431C13.3973 31.6022 12.15 28.4367 12.15 24.9H10.15C10.15 28.9633 11.6027 32.5978 14.4567 35.769L15.9433 34.431ZM12.15 24.9C12.15 18.5408 14.8287 13.4901 20.2744 9.66856L19.1256 8.03144C13.1713 12.2099 10.15 17.8592 10.15 24.9H12.15ZM20.2677 9.67321C25.8945 5.79268 32.245 3.85 39.35 3.85V1.85C31.855 1.85 25.1055 3.90731 19.1323 8.02679L20.2677 9.67321ZM39.35 3.85C44.1099 3.85 48.4045 4.8203 52.2528 6.74442L53.1472 4.95557C48.9955 2.87969 44.3901 1.85 39.35 1.85V3.85ZM52.2528 6.74442C54.1316 7.68384 55.4978 8.84176 56.4076 10.1953C57.3143 11.5444 57.8044 13.1419 57.8503 15.0244L59.8497 14.9756C59.7956 12.7581 59.2107 10.7806 58.0675 9.07966C56.9272 7.38323 55.2684 6.01615 53.1472 4.95557L52.2528 6.74442ZM57.85 15C57.85 17.2281 57.2958 19.0056 56.25 20.4L57.85 21.6C59.2042 19.7944 59.85 17.5719 59.85 15H57.85ZM56.25 20.4C55.2496 21.7338 53.9036 22.4 52.1 22.4V24.4C54.4964 24.4 56.4504 23.4662 57.85 21.6L56.25 20.4ZM52.1 22.4C51.2015 22.4 50.679 22.2275 50.3937 22.0238C50.1541 21.8526 49.9815 21.5897 49.9478 21.0835L47.9522 21.2165C48.0185 22.2103 48.4209 23.0724 49.2313 23.6512C49.996 24.1974 50.9985 24.4 52.1 24.4V22.4ZM111.427 39.75L110.937 40.6216L110.958 40.6335L110.98 40.6444L111.427 39.75ZM99.7273 39.9L99.2801 39.0056L97.9768 39.6572L99.0536 40.639L99.7273 39.9ZM113.077 43.95L113.702 44.7309L113.745 44.6963L113.784 44.6571L113.077 43.95ZM120.877 17.7L119.88 17.6261L119.877 17.663V17.7H120.877ZM121.177 13.65L122.175 13.7239L122.177 13.687V13.65H121.177ZM118.627 7.5L117.846 8.12469L117.864 8.14623L117.882 8.16679L118.627 7.5ZM98.9773 10.95L99.7181 11.6218L99.7181 11.6218L98.9773 10.95ZM96.8773 36.9L96.0803 37.5039L96.5579 38.1344L97.2815 37.8147L96.8773 36.9ZM117.727 36L117.219 36.8609L117.241 36.8744L117.265 36.8866L117.727 36ZM117.427 47.1L116.995 46.1985L116.987 46.202L116.98 46.2056L117.427 47.1ZM94.0273 44.25L94.5862 43.4207L93.8886 42.9506L93.306 43.5575L94.0273 44.25ZM88.1773 53.1L87.2624 52.6964L87.2574 52.7077L87.2527 52.7192L88.1773 53.1ZM91.7773 78.75L90.9871 79.3628L90.9871 79.3628L91.7773 78.75ZM139.177 60L138.28 59.5591L138.275 59.5695L139.177 60ZM138.127 70.8L137.276 70.2747L137.275 70.2777L138.127 70.8ZM122.077 87.6L122.555 88.4785L122.56 88.4756L122.077 87.6ZM81.2773 84.9L80.563 85.5998L80.563 85.5998L81.2773 84.9ZM78.2773 52.8L77.4368 52.2583L77.4337 52.2631L78.2773 52.8ZM89.3773 41.25L89.9569 42.065L91.017 41.3111L90.0159 40.4804L89.3773 41.25ZM91.1773 7.94999L91.8386 8.70023L91.8456 8.69391L91.1773 7.94999ZM126.427 4.34999L125.81 5.13705L125.822 5.14623L125.834 5.15505L126.427 4.34999ZM130.177 19.8L130.91 20.4804L130.91 20.4804L130.177 19.8ZM114.827 42.75C114.827 41.0004 113.627 39.7319 111.875 38.8556L110.98 40.6444C112.427 41.3681 112.827 42.0996 112.827 42.75H114.827ZM111.918 38.8784C110.148 37.8827 108.124 37.4 105.877 37.4V39.4C107.831 39.4 109.507 39.8173 110.937 40.6216L111.918 38.8784ZM105.877 37.4C103.612 37.4 101.41 37.9408 99.2801 39.0056L100.175 40.7944C102.045 39.8592 103.943 39.4 105.877 39.4V37.4ZM99.0536 40.639C102.614 43.8848 106.597 45.55 110.977 45.55V43.55C107.158 43.55 103.641 42.1152 100.401 39.161L99.0536 40.639ZM110.977 45.55C112.014 45.55 112.965 45.3204 113.702 44.7309L112.453 43.1691C112.19 43.3796 111.741 43.55 110.977 43.55V45.55ZM113.784 44.6571C114.064 44.3773 114.308 44.0925 114.488 43.805C114.66 43.5293 114.827 43.1659 114.827 42.75H112.827C112.827 42.6341 112.87 42.6207 112.792 42.745C112.722 42.8575 112.59 43.0227 112.37 43.2429L113.784 44.6571ZM121.875 17.7739L122.175 13.7239L120.18 13.5761L119.88 17.6261L121.875 17.7739ZM122.177 13.65C122.177 11.1653 121.209 8.88556 119.373 6.8332L117.882 8.16679C119.446 9.91443 120.177 11.7347 120.177 13.65H122.177ZM119.408 6.8753C117.599 4.61392 115.099 3.49999 112.027 3.49999V5.49999C114.556 5.49999 116.456 6.38607 117.846 8.12469L119.408 6.8753ZM112.027 3.49999C106.887 3.49999 102.283 5.81666 98.2366 10.2782L99.7181 11.6218C103.472 7.48333 107.568 5.49999 112.027 5.49999V3.49999ZM98.2366 10.2782C94.2024 14.7262 92.1273 19.557 92.1273 24.75H94.1273C94.1273 20.143 95.9523 15.7738 99.7181 11.6218L98.2366 10.2782ZM92.1273 24.75C92.1273 29.7319 93.4283 34.0033 96.0803 37.5039L97.6744 36.2961C95.3264 33.1967 94.1273 29.3681 94.1273 24.75H92.1273ZM97.2815 37.8147C101.487 35.9563 105.349 35.05 108.877 35.05V33.05C105.006 33.05 100.867 34.0437 96.4732 35.9853L97.2815 37.8147ZM108.877 35.05C112.474 35.05 115.227 35.6839 117.219 36.8609L118.236 35.1391C115.828 33.7161 112.681 33.05 108.877 33.05V35.05ZM117.265 36.8866C118.287 37.4197 119.002 38.0692 119.466 38.8154C119.928 39.5596 120.177 40.4584 120.177 41.55H122.177C122.177 40.1416 121.852 38.8654 121.164 37.7596C120.478 36.6558 119.468 35.7803 118.19 35.1134L117.265 36.8866ZM120.177 41.55C120.177 42.6252 119.911 43.5124 119.411 44.2526C118.907 44.999 118.123 45.6568 116.995 46.1985L117.86 48.0015C119.232 47.3432 120.323 46.476 121.068 45.3724C121.818 44.2626 122.177 42.9748 122.177 41.55H120.177ZM116.98 46.2056C114.735 47.3283 112.191 47.9 109.327 47.9V49.9C112.464 49.9 115.32 49.2717 117.875 47.9944L116.98 46.2056ZM109.327 47.9C103.924 47.9 99.0194 46.4083 94.5862 43.4207L93.4685 45.0793C98.2353 48.2917 103.53 49.9 109.327 49.9V47.9ZM93.306 43.5575C90.8194 46.1476 88.8061 49.1973 87.2624 52.6964L89.0923 53.5036C90.5485 50.2027 92.4353 47.3524 94.7487 44.9425L93.306 43.5575ZM87.2527 52.7192C85.8157 56.2089 85.0773 59.4895 85.0773 62.55H87.0773C87.0773 59.8105 87.739 56.7911 89.102 53.4807L87.2527 52.7192ZM85.0773 62.55C85.0773 68.6837 87.0586 74.2971 90.9871 79.3628L92.5676 78.1372C88.8961 73.4029 87.0773 68.2163 87.0773 62.55H85.0773ZM90.9871 79.3628C94.9801 84.5116 100.324 87.1 106.927 87.1V85.1C100.931 85.1 96.1746 82.7884 92.5676 78.1372L90.9871 79.3628ZM106.927 87.1C120.68 87.1 131.701 77.996 140.08 60.4305L138.275 59.5695C130.054 76.804 119.574 85.1 106.927 85.1V87.1ZM140.075 60.4409C141.471 57.5989 142.592 55.495 143.442 54.1108C143.87 53.4145 144.209 52.9327 144.464 52.6363C144.592 52.4866 144.674 52.4144 144.711 52.3873C144.769 52.3443 144.659 52.45 144.427 52.45V50.45C144.02 50.45 143.703 50.6447 143.521 50.7799C143.317 50.9309 143.125 51.1259 142.947 51.3325C142.589 51.7486 142.185 52.3355 141.738 53.0642C140.838 54.53 139.684 56.7011 138.28 59.5591L140.075 60.4409ZM144.427 52.45C144.673 52.45 144.674 52.5108 144.62 52.4571C144.567 52.4034 144.627 52.4041 144.627 52.65H146.627C146.627 52.0959 146.488 51.4966 146.034 51.0429C145.581 50.5892 144.981 50.45 144.427 50.45V52.45ZM144.627 52.65C144.627 54.4617 144.056 56.8343 142.828 59.8056C141.606 62.7642 139.76 66.2519 137.276 70.2747L138.978 71.3253C141.495 67.2481 143.399 63.6608 144.677 60.5694C145.949 57.4907 146.627 54.8382 146.627 52.65H144.627ZM137.275 70.2777C132.43 78.188 127.192 83.6359 121.594 86.7244L122.56 88.4756C128.562 85.1641 134.025 79.412 138.98 71.3223L137.275 70.2777ZM121.6 86.7215C116.083 89.7217 109.208 91.25 100.927 91.25V93.25C109.446 93.25 116.672 91.6783 122.555 88.4785L121.6 86.7215ZM100.927 91.25C92.8357 91.25 86.5651 88.8689 81.9917 84.2002L80.563 85.5998C85.5896 90.7311 92.419 93.25 100.927 93.25V91.25ZM81.9917 84.2002C77.3874 79.5 75.0773 73.6569 75.0773 66.6H73.0773C73.0773 74.1431 75.5673 80.5 80.563 85.5998L81.9917 84.2002ZM75.0773 66.6C75.0773 62.0066 76.4139 57.5909 79.121 53.3369L77.4337 52.2631C74.5408 56.8091 73.0773 61.5934 73.0773 66.6H75.0773ZM79.1179 53.3417C81.9469 48.9519 85.5571 45.1936 89.9569 42.065L88.7978 40.435C84.1975 43.7063 80.4078 47.6481 77.4368 52.2583L79.1179 53.3417ZM90.0159 40.4804C85.5163 36.7467 83.3273 32.3172 83.3273 27.15H81.3273C81.3273 32.9828 83.8384 37.9533 88.7388 42.0196L90.0159 40.4804ZM83.3273 27.15C83.3273 19.8483 86.1454 13.7179 91.8385 8.7002L90.5161 7.19978C84.4093 12.5821 81.3273 19.2517 81.3273 27.15H83.3273ZM91.8456 8.69391C97.5506 3.56914 104.458 0.999996 112.627 0.999996V-1C103.997 -1 96.6041 1.73085 90.5091 7.20607L91.8456 8.69391ZM112.627 0.999996C117.943 0.999996 122.315 2.39761 125.81 5.13705L127.044 3.56294C123.139 0.502376 118.311 -1 112.627 -1V0.999996ZM125.834 5.15505C129.439 7.81115 131.127 10.8861 131.127 14.4H133.127C133.127 10.1139 131.016 6.48884 127.021 3.54494L125.834 5.15505ZM131.127 14.4C131.127 16.3886 130.547 17.9325 129.445 19.1195L130.91 20.4804C132.408 18.8675 133.127 16.8114 133.127 14.4H131.127ZM129.445 19.1195C128.344 20.3053 126.964 20.9 125.227 20.9V22.9C127.491 22.9 129.411 22.0947 130.91 20.4804L129.445 19.1195ZM125.227 20.9C123.923 20.9 123.13 20.5847 122.659 20.1306C122.196 19.6828 121.877 18.9368 121.877 17.7H119.877C119.877 19.2632 120.284 20.6172 121.27 21.5694C122.25 22.5153 123.632 22.9 125.227 22.9V20.9Z" fill="#3683CA"/>
<defs>
<linearGradient id="paint0_linear_1_2" x1="68" y1="-28" x2="68" y2="138" gradientUnits="userSpaceOnUse">
<stop stop-color="#7F9AE1"/>
<stop offset="1" stop-color="#FF8686"/>
</linearGradient>
</defs>
</svg>
