<svg width="201" height="133" viewBox="0 0 201 133" fill="none" xmlns="http://www.w3.org/2000/svg">
<path d="M53.8105 53.1719H44.9482C41.1885 53.1719 38.4785 52.2197 36.8184 50.3154C35.1582 48.3623 34.3281 45.7988 34.3281 42.625C34.3281 35.5938 39.5771 32.0781 50.0752 32.0781C59.9385 32.0781 67.3604 33.543 72.3408 36.4727L68.0928 39.6953C64.6748 38.1328 58.6689 37.3516 50.0752 37.3516C45.876 37.3516 43.0439 37.8154 41.5791 38.7432C40.1631 39.6709 39.4551 40.9648 39.4551 42.625C39.4551 44.2852 39.8457 45.5791 40.627 46.5068C41.4082 47.4346 42.8486 47.8984 44.9482 47.8984H54.0303C60.6221 47.8984 66.5547 49.0215 71.8281 51.2676C77.1504 53.5137 81.5205 56.5898 84.9385 60.4961C88.3564 64.3535 90.9688 68.8213 92.7754 73.8994C94.582 78.9287 95.4854 84.3242 95.4854 90.0859C95.4854 94.7734 94.8262 99.2168 93.5078 103.416C92.1895 107.615 90.1875 111.473 87.502 114.988C84.8652 118.504 81.667 121.556 77.9072 124.144C74.1963 126.683 69.7529 128.66 64.5771 130.076C59.4502 131.541 53.8838 132.273 47.8779 132.273C38.4541 132.273 29.6162 130.833 21.3643 127.952C13.1611 125.12 6.3252 121.141 0.856445 116.014L5.10449 112.864C10.085 117.356 16.3105 120.848 23.7812 123.338C31.3008 125.779 39.333 127 47.8779 127C54.5674 127 60.5977 126.048 65.9688 124.144C71.3887 122.19 75.832 119.529 79.2988 116.16C82.8145 112.791 85.5 108.885 87.3555 104.441C89.2598 99.998 90.2119 95.2129 90.2119 90.0859C90.2119 83.2988 88.8447 77.1709 86.1104 71.7021C83.376 66.1846 79.2012 61.7168 73.5859 58.2988C68.0195 54.8809 61.4277 53.1719 53.8105 53.1719ZM44.9482 58.4453H53.2979C63.21 58.4453 70.9492 61.4727 76.5156 67.5273C82.1309 73.582 84.9385 81.1016 84.9385 90.0859C84.9385 99.2168 81.6914 106.785 75.1973 112.791C68.7031 118.748 59.5967 121.727 47.8779 121.727C40.0654 121.727 32.7656 120.652 25.9785 118.504C19.1914 116.355 13.5518 113.328 9.05957 109.422L13.1611 106.126C17.165 109.397 22.1943 111.937 28.249 113.743C34.3525 115.55 40.8955 116.453 47.8779 116.453C58.1807 116.453 66.042 113.987 71.4619 109.056C76.9307 104.124 79.665 97.8008 79.665 90.0859C79.665 82.4688 77.3701 76.1699 72.7803 71.1895C68.2393 66.209 61.7207 63.7188 53.2246 63.7188H44.9482C37.8193 63.7188 32.4727 61.7656 28.9082 57.8594C25.3438 53.9531 23.5615 48.875 23.5615 42.625C23.5615 36.375 25.7588 31.2969 30.1533 27.3906C34.5967 23.4844 41.2373 21.5312 50.0752 21.5312C56.2764 21.5312 62.0381 22.2637 67.3604 23.7285C72.6826 25.1445 77.0771 27.1953 80.5439 29.8809L76.3691 33.1035C70.2656 28.9043 61.501 26.8047 50.0752 26.8047C42.7021 26.8047 37.3066 28.2695 33.8887 31.1992C30.5195 34.0801 28.835 37.8887 28.835 42.625C28.835 47.4102 30.0801 51.2432 32.5703 54.124C35.1094 57.0049 39.2354 58.4453 44.9482 58.4453ZM44.9482 68.9922H53.0049C60.1338 68.9922 65.4805 70.9697 69.0449 74.9248C72.6094 78.8799 74.3916 83.9336 74.3916 90.0859C74.3916 96.3359 72.1699 101.414 67.7266 105.32C63.332 109.227 56.7158 111.18 47.8779 111.18C41.6768 111.18 35.8906 110.472 30.5195 109.056C25.1973 107.591 20.8027 105.516 17.3359 102.83L21.5107 99.6074C27.6143 103.807 36.4033 105.906 47.8779 105.906C55.251 105.906 60.6221 104.466 63.9912 101.585C67.4092 98.6553 69.1182 94.8223 69.1182 90.0859C69.1182 85.3496 67.8486 81.541 65.3096 78.6602C62.7705 75.7305 58.6445 74.2656 52.9316 74.2656H44.9482C34.9385 74.2656 27.1016 71.2871 21.4375 65.3301C15.8223 59.3242 13.0146 51.7559 13.0146 42.625C13.0146 33.4941 16.2617 25.9502 22.7559 19.9932C29.25 13.9873 38.3564 10.9844 50.0752 10.9844C57.8877 10.9844 65.1631 12.0586 71.9014 14.207C78.6885 16.3555 84.3281 19.3828 88.8203 23.2891L84.7188 26.585C80.7148 23.3135 75.6855 20.7744 69.6309 18.9678C63.5762 17.1611 57.0576 16.2578 50.0752 16.2578C39.7725 16.2578 31.8867 18.7236 26.418 23.6553C20.998 28.5869 18.2881 34.9102 18.2881 42.625C18.2881 50.291 20.583 56.6143 25.1729 61.5947C29.7627 66.5264 36.3545 68.9922 44.9482 68.9922ZM44.9482 79.5391H53.0049C56.7646 79.5391 59.4746 80.5156 61.1348 82.4688C62.7949 84.4219 63.625 86.9609 63.625 90.0859C63.625 97.1172 58.376 100.633 47.8779 100.633C37.9658 100.633 30.5195 99.168 25.5391 96.2383L29.7871 93.0156C33.2051 94.5781 39.2354 95.3594 47.8779 95.3594C52.0771 95.3594 54.8848 94.8955 56.3008 93.9678C57.7656 93.04 58.498 91.7461 58.498 90.0859C58.498 88.4746 58.083 87.2051 57.2529 86.2773C56.4717 85.3008 55.0068 84.8125 52.8584 84.8125H44.9482C38.21 84.8125 32.1064 83.7139 26.6377 81.5166C21.2178 79.3193 16.75 76.292 13.2344 72.4346C9.76758 68.5771 7.10645 64.1094 5.25098 59.0312C3.39551 53.9531 2.46777 48.4844 2.46777 42.625C2.46777 37.9375 3.12695 33.4941 4.44531 29.2949C5.76367 25.0957 7.74121 21.2383 10.3779 17.7227C13.0635 14.207 16.2617 11.1797 19.9727 8.64062C23.7324 6.05273 28.1758 4.05078 33.3027 2.63477C38.4785 1.16992 44.0693 0.4375 50.0752 0.4375C59.499 0.4375 68.3125 1.87793 76.5156 4.75879C84.7188 7.59082 91.5547 11.5703 97.0234 16.6973L92.7754 19.8467C87.7949 15.3545 81.5693 11.8877 74.0986 9.44629C66.6279 6.95605 58.6201 5.71094 50.0752 5.71094C43.3857 5.71094 37.3311 6.6875 31.9111 8.64062C26.54 10.5449 22.0967 13.1816 18.5811 16.5508C15.1143 19.9199 12.4287 23.8262 10.5244 28.2695C8.66895 32.7129 7.74121 37.498 7.74121 42.625C7.74121 49.5098 9.13281 55.7109 11.916 61.2285C14.6992 66.7461 18.9473 71.1895 24.6602 74.5586C30.373 77.8789 37.1357 79.5391 44.9482 79.5391ZM133.571 127H128.298V5.71094H133.571V127ZM123.024 127H117.751V5.71094H123.024V127ZM112.478 127H107.204V5.71094H112.478V127ZM144.118 100.633H200.222V105.906H144.118V111.18H200.222V116.453H144.118V121.727H200.222V127H138.845V5.71094H200.222V10.9844H144.118V16.2578H200.222V21.5312H144.118V26.8047H200.222V32.0781H144.118V53.1719H172.902V58.4453H144.118V63.7188H172.902V68.9922H144.118V74.2656H172.902V79.5391H144.118V100.633Z" fill="#A95656"/>
<path d="M36.8184 50.3154L36.0564 50.9631L36.0646 50.9726L36.8184 50.3154ZM72.3408 36.4727L72.9452 37.2693L74.1342 36.3674L72.8478 35.6107L72.3408 36.4727ZM68.0928 39.6953L67.677 40.6048L68.2208 40.8534L68.6972 40.492L68.0928 39.6953ZM41.5791 38.7432L41.044 37.8983L41.0375 37.9025L41.0311 37.9067L41.5791 38.7432ZM71.8281 51.2676L71.4363 52.1876L71.4393 52.1889L71.8281 51.2676ZM84.9385 60.4961L84.1859 61.1546L84.19 61.1593L84.9385 60.4961ZM92.7754 73.8994L91.8332 74.2346L91.8343 74.2375L92.7754 73.8994ZM87.502 114.988L86.7073 114.381L86.702 114.388L87.502 114.988ZM77.9072 124.144L78.4719 124.969L78.4742 124.967L77.9072 124.144ZM64.5771 130.076L64.3132 129.112L64.3024 129.115L64.5771 130.076ZM21.3643 127.952L21.6939 127.008L21.6906 127.007L21.3643 127.952ZM0.856445 116.014L0.260887 115.21L-0.701486 115.924L0.172504 116.743L0.856445 116.014ZM5.10449 112.864L5.77426 112.122L5.16646 111.573L4.50893 112.061L5.10449 112.864ZM23.7812 123.338L23.465 124.287L23.4724 124.289L23.7812 123.338ZM65.9688 124.144L66.3029 125.086L66.3078 125.084L65.9688 124.144ZM79.2988 116.16L78.6069 115.438L78.6019 115.443L79.2988 116.16ZM87.3555 104.441L86.4363 104.047L86.4327 104.056L87.3555 104.441ZM86.1104 71.7021L85.2143 72.1462L85.2159 72.1494L86.1104 71.7021ZM73.5859 58.2988L73.0627 59.151L73.066 59.153L73.5859 58.2988ZM76.5156 67.5273L75.7795 68.2041L75.7824 68.2073L76.5156 67.5273ZM75.1973 112.791L75.8732 113.528L75.8762 113.525L75.1973 112.791ZM9.05957 109.422L8.43318 108.642L7.50079 109.392L8.40339 110.176L9.05957 109.422ZM13.1611 106.126L13.7939 105.352L13.1664 104.839L12.5347 105.346L13.1611 106.126ZM28.249 113.743L27.9631 114.701L27.9652 114.702L28.249 113.743ZM71.4619 109.056L70.7922 108.313L70.7889 108.316L71.4619 109.056ZM72.7803 71.1895L72.0413 71.8632L72.0449 71.8671L72.7803 71.1895ZM30.1533 27.3906L29.4931 26.6396L29.489 26.6432L30.1533 27.3906ZM67.3604 23.7285L67.095 24.6927L67.1032 24.6949L67.3604 23.7285ZM80.5439 29.8809L81.155 30.6724L82.1787 29.8822L81.1563 29.0903L80.5439 29.8809ZM76.3691 33.1035L75.8023 33.9274L76.403 34.3406L76.9802 33.8951L76.3691 33.1035ZM33.8887 31.1992L34.5386 31.9593L34.5395 31.9585L33.8887 31.1992ZM32.5703 54.124L31.8137 54.778L31.8201 54.7852L32.5703 54.124ZM67.7266 105.32L67.0663 104.569L67.0622 104.573L67.7266 105.32ZM30.5195 109.056L30.2542 110.02L30.2646 110.023L30.5195 109.056ZM17.3359 102.83L16.7249 102.038L15.7012 102.829L16.7235 103.621L17.3359 102.83ZM21.5107 99.6074L22.0776 98.7836L21.4769 98.3703L20.8997 98.8158L21.5107 99.6074ZM63.9912 101.585L64.6411 102.345L64.642 102.344L63.9912 101.585ZM65.3096 78.6602L64.5539 79.3151L64.5594 79.3214L65.3096 78.6602ZM21.4375 65.3301L20.707 66.0131L20.7128 66.0191L21.4375 65.3301ZM22.7559 19.9932L23.4318 20.7301L23.4348 20.7273L22.7559 19.9932ZM71.9014 14.207L71.5976 15.1598L71.5996 15.1604L71.9014 14.207ZM88.8203 23.2891L89.4467 24.0686L90.3791 23.3193L89.4765 22.5345L88.8203 23.2891ZM84.7188 26.585L84.086 27.3593L84.7135 27.872L85.3451 27.3645L84.7188 26.585ZM26.418 23.6553L25.7483 22.9126L25.745 22.9156L26.418 23.6553ZM25.1729 61.5947L24.4375 62.2724L24.4408 62.276L25.1729 61.5947ZM25.5391 96.2383L24.9347 95.4416L23.7457 96.3436L25.032 97.1002L25.5391 96.2383ZM29.7871 93.0156L30.2029 92.1062L29.6591 91.8576L29.1827 92.2189L29.7871 93.0156ZM56.3008 93.9678L55.7657 93.123L55.7592 93.1271L55.7528 93.1313L56.3008 93.9678ZM57.2529 86.2773L56.4721 86.902L56.4893 86.9236L56.5077 86.9441L57.2529 86.2773ZM26.6377 81.5166L26.262 82.4433L26.2649 82.4445L26.6377 81.5166ZM13.2344 72.4346L12.4906 73.103L12.4953 73.1082L13.2344 72.4346ZM10.3779 17.7227L9.58323 17.1156L9.57793 17.1227L10.3779 17.7227ZM19.9727 8.64062L20.5373 9.46594L20.5396 9.46435L19.9727 8.64062ZM33.3027 2.63477L33.569 3.5987L33.5751 3.59697L33.3027 2.63477ZM76.5156 4.75879L76.1843 5.70231L76.1893 5.70404L76.5156 4.75879ZM97.0234 16.6973L97.619 17.5006L98.5814 16.7871L97.7074 15.9677L97.0234 16.6973ZM92.7754 19.8467L92.1056 20.5892L92.7134 21.1375L93.3709 20.65L92.7754 19.8467ZM74.0986 9.44629L73.7824 10.395L73.788 10.3968L74.0986 9.44629ZM31.9111 8.64062L32.2453 9.58315L32.2502 9.5814L31.9111 8.64062ZM18.5811 16.5508L17.8891 15.8288L17.8841 15.8336L18.5811 16.5508ZM10.5244 28.2695L9.60523 27.8756L9.60164 27.8842L10.5244 28.2695ZM24.6602 74.5586L24.1522 75.42L24.1577 75.4232L24.6602 74.5586ZM53.8105 52.1719H44.9482V54.1719H53.8105V52.1719ZM44.9482 52.1719C41.3345 52.1719 38.9652 51.2562 37.5721 49.6583L36.0646 50.9726C37.9918 53.1832 41.0424 54.1719 44.9482 54.1719V52.1719ZM37.5803 49.6678C36.1079 47.9355 35.3281 45.62 35.3281 42.625H33.3281C33.3281 45.9776 34.2085 48.7891 36.0564 50.9631L37.5803 49.6678ZM35.3281 42.625C35.3281 39.3987 36.5089 37.0945 38.8214 35.5457C41.2048 33.9493 44.9063 33.0781 50.0752 33.0781V31.0781C44.7461 31.0781 40.574 31.9647 37.7084 33.884C34.7719 35.8508 33.3281 38.82 33.3281 42.625H35.3281ZM50.0752 33.0781C59.871 33.0781 67.0805 34.5385 71.8338 37.3346L72.8478 35.6107C67.6402 32.5474 60.006 31.0781 50.0752 31.0781V33.0781ZM71.7364 35.676L67.4884 38.8986L68.6972 40.492L72.9452 37.2693L71.7364 35.676ZM68.5085 38.7858C64.8753 37.1249 58.6739 36.3516 50.0752 36.3516V38.3516C58.664 38.3516 64.4743 39.1407 67.677 40.6048L68.5085 38.7858ZM50.0752 36.3516C47.9438 36.3516 46.1279 36.4689 44.6401 36.7126C43.1671 36.9539 41.9408 37.3304 41.044 37.8983L42.1142 39.588C42.6823 39.2282 43.6044 38.9089 44.9634 38.6863C46.3077 38.4661 48.0073 38.3516 50.0752 38.3516V36.3516ZM41.0311 37.9067C39.3397 39.0148 38.4551 40.6197 38.4551 42.625H40.4551C40.4551 41.31 40.9864 40.327 42.1271 39.5796L41.0311 37.9067ZM38.4551 42.625C38.4551 44.4341 38.8811 45.9861 39.862 47.151L41.3919 45.8627C40.8103 45.1721 40.4551 44.1362 40.4551 42.625H38.4551ZM39.862 47.151C40.9348 48.4248 42.7596 48.8984 44.9482 48.8984V46.8984C42.9376 46.8984 41.8817 46.4443 41.3919 45.8627L39.862 47.151ZM44.9482 48.8984H54.0303V46.8984H44.9482V48.8984ZM54.0303 48.8984C60.5075 48.8984 66.3039 50.0016 71.4363 52.1876L72.22 50.3476C66.8054 48.0414 60.7367 46.8984 54.0303 46.8984V48.8984ZM71.4393 52.1889C76.6379 54.3828 80.8785 57.3747 84.1859 61.1546L85.6911 59.8376C82.1625 55.805 77.6629 52.6445 72.2169 50.3463L71.4393 52.1889ZM84.19 61.1593C87.5191 64.9164 90.0676 69.2716 91.8332 74.2346L93.7175 73.5642C91.8699 68.371 89.1938 63.7906 85.6869 59.8329L84.19 61.1593ZM91.8343 74.2375C93.599 79.1501 94.4854 84.4304 94.4854 90.0859H96.4854C96.4854 84.218 95.5651 78.7073 93.7165 73.5613L91.8343 74.2375ZM94.4854 90.0859C94.4854 94.6785 93.8397 99.0203 92.5537 103.116L94.4619 103.716C95.8126 99.4133 96.4854 94.8684 96.4854 90.0859H94.4854ZM92.5537 103.116C91.2704 107.204 89.3226 110.958 86.7073 114.381L88.2966 115.595C91.0524 111.988 93.1085 108.026 94.4619 103.716L92.5537 103.116ZM86.702 114.388C84.1328 117.814 81.0142 120.791 77.3402 123.32L78.4742 124.967C82.3198 122.32 85.5977 119.194 88.302 115.588L86.702 114.388ZM77.3425 123.318C73.7392 125.784 69.4019 127.719 64.3133 129.112L64.841 131.041C70.104 129.601 74.6533 127.582 78.4719 124.969L77.3425 123.318ZM64.3024 129.115C59.2753 130.551 53.8024 131.273 47.8779 131.273V133.273C53.9652 133.273 59.6251 132.531 64.8519 131.038L64.3024 129.115ZM47.8779 131.273C38.5575 131.273 29.8319 129.849 21.6939 127.008L21.0347 128.896C29.4006 131.817 38.3507 133.273 47.8779 133.273V131.273ZM21.6906 127.007C13.5997 124.214 6.89149 120.301 1.54039 115.284L0.172504 116.743C5.7589 121.98 12.7226 126.027 21.0379 128.897L21.6906 127.007ZM1.452 116.817L5.70005 113.668L4.50893 112.061L0.260887 115.21L1.452 116.817ZM4.43472 113.607C9.53382 118.206 15.886 121.76 23.465 124.287L24.0975 122.389C16.7351 119.935 10.6361 116.507 5.77426 112.122L4.43472 113.607ZM23.4724 124.289C31.0995 126.765 39.2366 128 47.8779 128V126C39.4294 126 31.5021 124.793 24.0901 122.387L23.4724 124.289ZM47.8779 128C54.6619 128 60.8077 127.034 66.3029 125.086L65.6346 123.201C60.3876 125.061 54.4729 126 47.8779 126V128ZM66.3078 125.084C71.8363 123.092 76.4093 120.363 79.9958 116.877L78.6019 115.443C75.2548 118.696 70.9411 121.289 65.6297 123.203L66.3078 125.084ZM79.9907 116.882C83.6045 113.419 86.3692 109.398 88.2782 104.827L86.4327 104.056C84.6308 108.371 82.0244 112.163 78.6069 115.438L79.9907 116.882ZM88.2746 104.835C90.2354 100.26 91.2119 95.34 91.2119 90.0859H89.2119C89.2119 95.0858 88.2841 99.736 86.4363 104.047L88.2746 104.835ZM91.2119 90.0859C91.2119 83.1609 89.8159 76.8772 87.0048 71.2549L85.2159 72.1494C87.8735 77.4646 89.2119 83.4368 89.2119 90.0859H91.2119ZM87.0064 71.2581C84.1822 65.5594 79.8714 60.954 74.1059 57.4446L73.066 59.153C78.531 62.4795 82.5697 66.8097 85.2143 72.1462L87.0064 71.2581ZM74.1092 57.4467C68.3608 53.9169 61.5813 52.1719 53.8105 52.1719V54.1719C61.2742 54.1719 67.6783 55.8448 73.0627 59.151L74.1092 57.4467ZM44.9482 59.4453H53.2979V57.4453H44.9482V59.4453ZM53.2979 59.4453C62.9924 59.4453 70.4408 62.3972 75.7795 68.2041L77.2518 66.8505C71.4577 60.5482 63.4276 57.4453 53.2979 57.4453V59.4453ZM75.7824 68.2073C81.2104 74.0601 83.9385 81.3296 83.9385 90.0859H85.9385C85.9385 80.8735 83.0513 73.1039 77.2488 66.8473L75.7824 68.2073ZM83.9385 90.0859C83.9385 98.9482 80.8004 106.247 74.5183 112.057L75.8762 113.525C82.5824 107.323 85.9385 99.4854 85.9385 90.0859H83.9385ZM74.5213 112.054C68.2655 117.792 59.4306 120.727 47.8779 120.727V122.727C59.7627 122.727 69.1407 119.704 75.8732 113.528L74.5213 112.054ZM47.8779 120.727C40.1579 120.727 32.9608 119.665 26.2803 117.551L25.6767 119.457C32.5705 121.639 39.9729 122.727 47.8779 122.727V120.727ZM26.2803 117.551C19.5986 115.435 14.0865 112.468 9.71575 108.667L8.40339 110.176C13.017 114.188 18.7842 117.275 25.6767 119.457L26.2803 117.551ZM9.68596 110.201L13.7875 106.905L12.5347 105.346L8.43318 108.642L9.68596 110.201ZM12.5284 106.9C16.6546 110.272 21.8092 112.865 27.9631 114.701L28.535 112.785C22.5795 111.008 17.6754 108.523 13.7939 105.352L12.5284 106.9ZM27.9652 114.702C34.1693 116.538 40.8086 117.453 47.8779 117.453V115.453C40.9824 115.453 34.5358 114.561 28.5329 112.784L27.9652 114.702ZM47.8779 117.453C58.3286 117.453 66.4678 114.952 72.1349 109.795L70.7889 108.316C65.6162 113.023 58.0327 115.453 47.8779 115.453V117.453ZM72.1316 109.798C77.8217 104.667 80.665 98.0686 80.665 90.0859H78.665C78.665 97.5329 76.0396 103.581 70.7922 108.313L72.1316 109.798ZM80.665 90.0859C80.665 82.2514 78.2972 75.7003 73.5156 70.5118L72.0449 71.8671C76.443 76.6395 78.665 82.6861 78.665 90.0859H80.665ZM73.5192 70.5157C68.7417 65.2758 61.9236 62.7188 53.2246 62.7188V64.7188C61.5178 64.7188 67.7368 67.1421 72.0413 71.8632L73.5192 70.5157ZM53.2246 62.7188H44.9482V64.7188H53.2246V62.7188ZM44.9482 62.7188C37.9983 62.7188 32.9625 60.8189 29.6469 57.1853L28.1695 58.5334C31.9828 62.7124 37.6404 64.7188 44.9482 64.7188V62.7188ZM29.6469 57.1853C26.2804 53.496 24.5615 48.6737 24.5615 42.625H22.5615C22.5615 49.0763 24.4071 54.4102 28.1695 58.5334L29.6469 57.1853ZM24.5615 42.625C24.5615 36.6403 26.6514 31.8414 30.8177 28.138L29.489 26.6432C24.8662 30.7523 22.5615 36.1097 22.5615 42.625H24.5615ZM30.8136 28.1417C35.0026 24.459 41.3637 22.5312 50.0752 22.5312V20.5312C41.1109 20.5312 34.1908 22.5097 29.4931 26.6396L30.8136 28.1417ZM50.0752 22.5312C56.1976 22.5312 61.8691 23.2543 67.095 24.6927L67.6257 22.7644C62.2071 21.273 56.3552 20.5312 50.0752 20.5312V22.5312ZM67.1032 24.6949C72.3284 26.0851 76.5935 28.0856 79.9315 30.6714L81.1563 29.0903C77.5608 26.305 73.0368 24.204 67.6175 22.7621L67.1032 24.6949ZM79.9329 29.0893L75.7581 32.3119L76.9802 33.8951L81.155 30.6724L79.9329 29.0893ZM76.9359 32.2797C70.5977 27.919 61.6012 25.8047 50.0752 25.8047V27.8047C61.4008 27.8047 69.9335 29.8896 75.8023 33.9274L76.9359 32.2797ZM50.0752 25.8047C42.6054 25.8047 36.9217 27.2824 33.2379 30.44L34.5395 31.9585C37.6916 29.2566 42.7989 27.8047 50.0752 27.8047V25.8047ZM33.2388 30.4392C29.6307 33.5243 27.835 37.6191 27.835 42.625H29.835C29.835 38.1583 31.4083 34.6358 34.5386 31.9593L33.2388 30.4392ZM27.835 42.625C27.835 47.5867 29.1294 51.6725 31.8138 54.778L33.3268 53.4701C31.0308 50.8138 29.835 47.2336 29.835 42.625H27.835ZM31.8201 54.7852C34.626 57.9688 39.0899 59.4453 44.9482 59.4453V57.4453C39.3808 57.4453 35.5928 56.041 33.3205 53.4628L31.8201 54.7852ZM44.9482 69.9922H53.0049V67.9922H44.9482V69.9922ZM53.0049 69.9922C59.9512 69.9922 64.9856 71.9143 68.3021 75.5943L69.7878 74.2553C65.9754 70.0251 60.3163 67.9922 53.0049 67.9922V69.9922ZM68.3021 75.5943C71.6755 79.3373 73.3916 84.1399 73.3916 90.0859H75.3916C75.3916 83.7273 73.5433 78.4224 69.7878 74.2553L68.3021 75.5943ZM73.3916 90.0859C73.3916 96.0668 71.2803 100.865 67.0663 104.569L68.3868 106.071C73.0596 101.963 75.3916 96.6051 75.3916 90.0859H73.3916ZM67.0622 104.573C62.9238 108.251 56.5905 110.18 47.8779 110.18V112.18C56.8411 112.18 63.7403 110.202 68.3909 106.068L67.0622 104.573ZM47.8779 110.18C41.753 110.18 36.0533 109.48 30.7745 108.089L30.2646 110.023C35.7279 111.463 41.6006 112.18 47.8779 112.18V110.18ZM30.7849 108.092C25.5571 106.653 21.289 104.627 17.9483 102.04L16.7235 103.621C20.3165 106.404 24.8374 108.529 30.2542 110.02L30.7849 108.092ZM17.947 103.622L22.1218 100.399L20.8997 98.8158L16.7249 102.038L17.947 103.622ZM20.9439 100.431C27.2827 104.792 36.3042 106.906 47.8779 106.906V104.906C36.5025 104.906 27.9458 102.821 22.0776 98.7836L20.9439 100.431ZM47.8779 106.906C55.343 106.906 61.0042 105.455 64.6411 102.345L63.3413 100.825C60.2399 103.477 55.159 104.906 47.8779 104.906V106.906ZM64.642 102.344C68.2945 99.2135 70.1182 95.0968 70.1182 90.0859H68.1182C68.1182 94.5477 66.5239 98.097 63.3404 100.826L64.642 102.344ZM70.1182 90.0859C70.1182 85.1653 68.7951 81.1024 66.0598 77.999L64.5594 79.3214C66.9022 81.9796 68.1182 85.5339 68.1182 90.0859H70.1182ZM66.0653 78.0052C63.2606 74.7691 58.7947 73.2656 52.9316 73.2656V75.2656C58.4944 75.2656 62.2804 76.6918 64.5539 79.3151L66.0653 78.0052ZM52.9316 73.2656H44.9482V75.2656H52.9316V73.2656ZM44.9482 73.2656C35.1484 73.2656 27.5975 70.3574 22.1622 64.641L20.7128 66.0191C26.6056 72.2168 34.7286 75.2656 44.9482 75.2656V73.2656ZM22.168 64.6471C16.7456 58.8476 14.0146 51.5327 14.0146 42.625H12.0146C12.0146 51.9791 14.8989 59.8009 20.707 66.013L22.168 64.6471ZM14.0146 42.625C14.0146 33.7629 17.1525 26.4901 23.4318 20.7301L22.0799 19.2562C15.371 25.4103 12.0146 33.2254 12.0146 42.625H14.0146ZM23.4348 20.7273C29.6908 14.9418 38.5245 11.9844 50.0752 11.9844V9.98438C38.1884 9.98438 28.8092 13.0328 22.0769 19.259L23.4348 20.7273ZM50.0752 11.9844C57.7953 11.9844 64.9672 13.0457 71.5976 15.1598L72.2051 13.2543C65.3589 11.0714 57.9801 9.98438 50.0752 9.98438V11.9844ZM71.5996 15.1604C78.2813 17.2755 83.7934 20.243 88.1641 24.0437L89.4765 22.5345C84.8629 18.5226 79.0957 15.4355 72.2032 13.2537L71.5996 15.1604ZM88.1939 22.5096L84.0924 25.8055L85.3451 27.3645L89.4467 24.0686L88.1939 22.5096ZM85.3515 25.8106C81.2252 22.4392 76.0707 19.8458 69.9168 18.0095L69.3449 19.926C75.3004 21.703 80.2044 24.1878 84.086 27.3593L85.3515 25.8106ZM69.9168 18.0095C63.7601 16.1725 57.1444 15.2578 50.0752 15.2578V17.2578C56.9709 17.2578 63.3922 18.1498 69.3449 19.926L69.9168 18.0095ZM50.0752 15.2578C39.6238 15.2578 31.4628 17.7594 25.7483 22.9126L27.0877 24.3979C32.3107 19.6879 39.9211 17.2578 50.0752 17.2578V15.2578ZM25.745 22.9156C20.1047 28.0478 17.2881 34.6454 17.2881 42.625H19.2881C19.2881 35.1749 21.8914 29.126 27.091 24.3949L25.745 22.9156ZM17.2881 42.625C17.2881 50.5065 19.6548 57.0827 24.4375 62.2724L25.9082 60.917C21.5112 56.1459 19.2881 50.0755 19.2881 42.625H17.2881ZM24.4408 62.276C29.2689 67.4636 36.158 69.9922 44.9482 69.9922V67.9922C36.551 67.9922 30.2565 65.5892 25.9049 60.9134L24.4408 62.276ZM44.9482 80.5391H53.0049V78.5391H44.9482V80.5391ZM53.0049 80.5391C56.6114 80.5391 58.9778 81.4752 60.3728 83.1164L61.8967 81.8211C59.9715 79.5561 56.9179 78.5391 53.0049 78.5391V80.5391ZM60.3728 83.1164C61.8476 84.8514 62.625 87.1442 62.625 90.0859H64.625C64.625 86.7777 63.7423 83.9923 61.8967 81.8211L60.3728 83.1164ZM62.625 90.0859C62.625 93.3122 61.4442 95.6164 59.1317 97.1652C56.7483 98.7616 53.0468 99.6328 47.8779 99.6328V101.633C53.2071 101.633 57.3792 100.746 60.2447 98.827C63.1813 96.8601 64.625 93.8909 64.625 90.0859H62.625ZM47.8779 99.6328C38.0322 99.6328 30.7989 98.1721 26.0461 95.3763L25.032 97.1002C30.2402 100.164 37.8994 101.633 47.8779 101.633V99.6328ZM26.1434 97.035L30.3915 93.8123L29.1827 92.2189L24.9347 95.4416L26.1434 97.035ZM29.3713 93.9251C33.005 95.5862 39.2314 96.3594 47.8779 96.3594V94.3594C39.2393 94.3594 33.4052 93.5701 30.2029 92.1062L29.3713 93.9251ZM47.8779 96.3594C50.009 96.3594 51.8196 96.242 53.2961 95.9981C54.7561 95.7569 55.971 95.3793 56.8488 94.8042L55.7528 93.1313C55.2145 93.4839 54.3176 93.8022 52.97 94.0248C51.6389 94.2448 49.946 94.3594 47.8779 94.3594V96.3594ZM56.8358 94.8126C58.5746 93.7114 59.498 92.1068 59.498 90.0859H57.498C57.498 91.3854 56.9566 92.3687 55.7657 93.123L56.8358 94.8126ZM59.498 90.0859C59.498 88.3029 59.0359 86.7704 57.9982 85.6105L56.5077 86.9441C57.1301 87.6398 57.498 88.6463 57.498 90.0859H59.498ZM58.0338 85.6526C56.9617 84.3125 55.0998 83.8125 52.8584 83.8125V85.8125C54.9139 85.8125 55.9817 86.289 56.4721 86.902L58.0338 85.6526ZM52.8584 83.8125H44.9482V85.8125H52.8584V83.8125ZM44.9482 83.8125C38.3196 83.8125 32.345 82.732 27.0105 80.5887L26.2649 82.4445C31.8679 84.6957 38.1004 85.8125 44.9482 85.8125V83.8125ZM27.0134 80.5899C21.7152 78.4419 17.3769 75.4952 13.9735 71.761L12.4953 73.1082C16.1231 77.0887 20.7204 80.1967 26.262 82.4433L27.0134 80.5899ZM13.9781 71.7661C10.6003 68.0077 8.00379 63.6515 6.19024 58.6881L4.31171 59.3744C6.2091 64.5673 8.93488 69.1466 12.4906 73.103L13.9781 71.7661ZM6.19024 58.6881C4.37819 53.7288 3.46777 48.3771 3.46777 42.625H1.46777C1.46777 48.5916 2.41283 54.1775 4.31171 59.3744L6.19024 58.6881ZM3.46777 42.625C3.46777 38.0325 4.11339 33.6906 5.3994 29.5945L3.49123 28.9954C2.14052 33.2977 1.46777 37.8425 1.46777 42.625H3.46777ZM5.3994 29.5945C6.68385 25.5032 8.60934 21.7474 11.1779 18.3227L9.57793 17.1227C6.87308 20.7291 4.84349 24.6882 3.49123 28.9954L5.3994 29.5945ZM11.1726 18.3297C13.7925 14.9 16.9127 11.9459 20.5373 9.46593L19.408 7.81532C15.6107 10.4134 12.3344 13.5141 9.58326 17.1156L11.1726 18.3297ZM20.5396 9.46435C24.1939 6.94909 28.532 4.98984 33.569 3.59868L33.0365 1.67085C27.8196 3.11172 23.2709 5.15638 19.4057 7.8169L20.5396 9.46435ZM33.5751 3.59697C38.6526 2.15993 44.1508 1.4375 50.0752 1.4375V-0.5625C43.9878 -0.5625 38.3044 0.179916 33.0304 1.67256L33.5751 3.59697ZM50.0752 1.4375C59.3956 1.4375 68.0962 2.86184 76.1843 5.7023L76.847 3.81528C68.5288 0.894016 59.6024 -0.5625 50.0752 -0.5625V1.4375ZM76.1893 5.70404C84.2802 8.49733 90.9884 12.4101 96.3395 17.4268L97.7074 15.9677C92.121 10.7305 85.1573 6.68431 76.842 3.81354L76.1893 5.70404ZM96.4279 15.894L92.1798 19.0434L93.3709 20.65L97.619 17.5006L96.4279 15.894ZM93.4452 19.1041C88.3445 14.5035 81.9903 10.9732 74.4093 8.49576L73.788 10.3968C81.1484 12.8022 87.2453 16.2054 92.1056 20.5892L93.4452 19.1041ZM74.4149 8.49761C66.8339 5.97061 58.7185 4.71094 50.0752 4.71094V6.71094C58.5218 6.71094 66.422 7.9415 73.7824 10.395L74.4149 8.49761ZM50.0752 4.71094C43.2884 4.71094 37.1167 5.70178 31.5721 7.69985L32.2502 9.5814C37.5454 7.67322 43.483 6.71094 50.0752 6.71094V4.71094ZM31.577 7.69811C26.0949 9.64176 21.523 12.3463 17.8891 15.8288L19.273 17.2728C22.6704 14.0169 26.9852 11.4481 32.2453 9.58314L31.577 7.69811ZM17.8841 15.8336C14.3226 19.2948 11.5616 23.3109 9.60527 27.8756L11.4436 28.6635C13.2958 24.3414 15.9059 20.545 19.278 17.2679L17.8841 15.8336ZM9.60164 27.8842C7.69195 32.4574 6.74121 37.3744 6.74121 42.625H8.74121C8.74121 37.6217 9.64594 32.9684 11.4472 28.6549L9.60164 27.8842ZM6.74121 42.625C6.74121 49.6481 8.1618 56.0063 11.0232 61.6789L12.8089 60.7781C10.1038 55.4155 8.74121 49.3714 8.74121 42.625H6.74121ZM11.0232 61.6789C13.899 67.3801 18.2869 71.961 24.1522 75.42L25.1681 73.6972C19.6076 70.418 15.4994 66.1121 12.8089 60.7781L11.0232 61.6789ZM24.1577 75.4232C30.0489 78.8472 36.9916 80.5391 44.9482 80.5391V78.5391C37.2799 78.5391 30.6972 76.9107 25.1626 73.694L24.1577 75.4232ZM133.571 127V128H134.571V127H133.571ZM128.298 127H127.298V128H128.298V127ZM128.298 5.71094V4.71094H127.298V5.71094H128.298ZM133.571 5.71094H134.571V4.71094H133.571V5.71094ZM123.024 127V128H124.024V127H123.024ZM117.751 127H116.751V128H117.751V127ZM117.751 5.71094V4.71094H116.751V5.71094H117.751ZM123.024 5.71094H124.024V4.71094H123.024V5.71094ZM112.478 127V128H113.478V127H112.478ZM107.204 127H106.204V128H107.204V127ZM107.204 5.71094V4.71094H106.204V5.71094H107.204ZM112.478 5.71094H113.478V4.71094H112.478V5.71094ZM144.118 100.633H143.118V101.633H144.118V100.633ZM200.222 100.633H201.222V99.6328H200.222V100.633ZM200.222 105.906V106.906H201.222V105.906H200.222ZM144.118 105.906V104.906H143.118V105.906H144.118ZM144.118 111.18H143.118V112.18H144.118V111.18ZM200.222 111.18H201.222V110.18H200.222V111.18ZM200.222 116.453V117.453H201.222V116.453H200.222ZM144.118 116.453V115.453H143.118V116.453H144.118ZM144.118 121.727H143.118V122.727H144.118V121.727ZM200.222 121.727H201.222V120.727H200.222V121.727ZM200.222 127V128H201.222V127H200.222ZM138.845 127H137.845V128H138.845V127ZM138.845 5.71094V4.71094H137.845V5.71094H138.845ZM200.222 5.71094H201.222V4.71094H200.222V5.71094ZM200.222 10.9844V11.9844H201.222V10.9844H200.222ZM144.118 10.9844V9.98438H143.118V10.9844H144.118ZM144.118 16.2578H143.118V17.2578H144.118V16.2578ZM200.222 16.2578H201.222V15.2578H200.222V16.2578ZM200.222 21.5312V22.5312H201.222V21.5312H200.222ZM144.118 21.5312V20.5312H143.118V21.5312H144.118ZM144.118 26.8047H143.118V27.8047H144.118V26.8047ZM200.222 26.8047H201.222V25.8047H200.222V26.8047ZM200.222 32.0781V33.0781H201.222V32.0781H200.222ZM144.118 32.0781V31.0781H143.118V32.0781H144.118ZM144.118 53.1719H143.118V54.1719H144.118V53.1719ZM172.902 53.1719H173.902V52.1719H172.902V53.1719ZM172.902 58.4453V59.4453H173.902V58.4453H172.902ZM144.118 58.4453V57.4453H143.118V58.4453H144.118ZM144.118 63.7188H143.118V64.7188H144.118V63.7188ZM172.902 63.7188H173.902V62.7188H172.902V63.7188ZM172.902 68.9922V69.9922H173.902V68.9922H172.902ZM144.118 68.9922V67.9922H143.118V68.9922H144.118ZM144.118 74.2656H143.118V75.2656H144.118V74.2656ZM172.902 74.2656H173.902V73.2656H172.902V74.2656ZM172.902 79.5391V80.5391H173.902V79.5391H172.902ZM144.118 79.5391V78.5391H143.118V79.5391H144.118ZM133.571 126H128.298V128H133.571V126ZM129.298 127V5.71094H127.298V127H129.298ZM128.298 6.71094H133.571V4.71094H128.298V6.71094ZM132.571 5.71094V127H134.571V5.71094H132.571ZM123.024 126H117.751V128H123.024V126ZM118.751 127V5.71094H116.751V127H118.751ZM117.751 6.71094H123.024V4.71094H117.751V6.71094ZM122.024 5.71094V127H124.024V5.71094H122.024ZM112.478 126H107.204V128H112.478V126ZM108.204 127V5.71094H106.204V127H108.204ZM107.204 6.71094H112.478V4.71094H107.204V6.71094ZM111.478 5.71094V127H113.478V5.71094H111.478ZM144.118 101.633H200.222V99.6328H144.118V101.633ZM199.222 100.633V105.906H201.222V100.633H199.222ZM200.222 104.906H144.118V106.906H200.222V104.906ZM143.118 105.906V111.18H145.118V105.906H143.118ZM144.118 112.18H200.222V110.18H144.118V112.18ZM199.222 111.18V116.453H201.222V111.18H199.222ZM200.222 115.453H144.118V117.453H200.222V115.453ZM143.118 116.453V121.727H145.118V116.453H143.118ZM144.118 122.727H200.222V120.727H144.118V122.727ZM199.222 121.727V127H201.222V121.727H199.222ZM200.222 126H138.845V128H200.222V126ZM139.845 127V5.71094H137.845V127H139.845ZM138.845 6.71094H200.222V4.71094H138.845V6.71094ZM199.222 5.71094V10.9844H201.222V5.71094H199.222ZM200.222 9.98438H144.118V11.9844H200.222V9.98438ZM143.118 10.9844V16.2578H145.118V10.9844H143.118ZM144.118 17.2578H200.222V15.2578H144.118V17.2578ZM199.222 16.2578V21.5312H201.222V16.2578H199.222ZM200.222 20.5312H144.118V22.5312H200.222V20.5312ZM143.118 21.5312V26.8047H145.118V21.5312H143.118ZM144.118 27.8047H200.222V25.8047H144.118V27.8047ZM199.222 26.8047V32.0781H201.222V26.8047H199.222ZM200.222 31.0781H144.118V33.0781H200.222V31.0781ZM143.118 32.0781V53.1719H145.118V32.0781H143.118ZM144.118 54.1719H172.902V52.1719H144.118V54.1719ZM171.902 53.1719V58.4453H173.902V53.1719H171.902ZM172.902 57.4453H144.118V59.4453H172.902V57.4453ZM143.118 58.4453V63.7188H145.118V58.4453H143.118ZM144.118 64.7188H172.902V62.7188H144.118V64.7188ZM171.902 63.7188V68.9922H173.902V63.7188H171.902ZM172.902 67.9922H144.118V69.9922H172.902V67.9922ZM143.118 68.9922V74.2656H145.118V68.9922H143.118ZM144.118 75.2656H172.902V73.2656H144.118V75.2656ZM171.902 74.2656V79.5391H173.902V74.2656H171.902ZM172.902 78.5391H144.118V80.5391H172.902V78.5391ZM143.118 79.5391V100.633H145.118V79.5391H143.118Z" fill="#A91FBF"/>
</svg>
