<svg width="161" height="117" viewBox="0 0 161 117" fill="none" xmlns="http://www.w3.org/2000/svg">
<path d="M37.35 116.25C30.6 116.25 24.925 115.2 20.325 113.1C15.775 111 12.025 108.15 9.075 104.55L0.900001 115.5H0.600001V84.75H0.900001C1.75 89.2 3.05 93.325 4.8 97.125C6.55 100.875 8.825 104.15 11.625 106.95C14.475 109.75 17.9 111.925 21.9 113.475C25.95 115.025 30.7 115.8 36.15 115.8C41.45 115.8 46.1 114.85 50.1 112.95C54.1 111.05 57.225 108.25 59.475 104.55C61.725 100.8 62.85 96.2 62.85 90.75C62.85 86.35 61.75 82.625 59.55 79.575C57.35 76.525 54.45 73.875 50.85 71.625C47.25 69.375 43.275 67.275 38.925 65.325C34.625 63.375 30.3 61.35 25.95 59.25C21.65 57.15 17.7 54.725 14.1 51.975C10.5 49.175 7.6 45.825 5.4 41.925C3.2 38.025 2.1 33.3 2.1 27.75C2.1 22.25 3.525 17.425 6.375 13.275C9.275 9.075 13.075 5.825 17.775 3.525C22.475 1.17499 27.6 -7.51019e-06 33.15 -7.51019e-06C38.25 -7.51019e-06 42.85 0.799994 46.95 2.4C51.05 3.99999 54.55 6.5 57.45 9.9L65.55 -7.51019e-06H65.85V30.75H65.55C64.55 23.8 62.625 18.1 59.775 13.65C56.975 9.2 53.425 5.925 49.125 3.82499C44.825 1.67499 40 0.599994 34.65 0.599994C27.45 0.599994 21.975 2.39999 18.225 6C14.475 9.54999 12.6 14.3 12.6 20.25C12.6 24.2 13.675 27.575 15.825 30.375C17.975 33.125 20.8 35.575 24.3 37.725C27.8 39.825 31.65 41.85 35.85 43.8C40.1 45.7 44.325 47.775 48.525 50.025C52.775 52.225 56.65 54.825 60.15 57.825C63.65 60.825 66.475 64.45 68.625 68.7C70.775 72.9 71.85 78 71.85 84C71.85 90.5 70.45 96.175 67.65 101.025C64.85 105.825 60.85 109.575 55.65 112.275C50.5 114.925 44.4 116.25 37.35 116.25ZM80.4176 114V113.7H93.8426V1.8H80.4176V1.49999H159.093V32.25H158.868C158.868 26.9 157.993 21.925 156.243 17.325C154.493 12.675 151.743 8.925 147.993 6.075C144.293 3.225 139.518 1.8 133.668 1.8H108.168V113.7H132.168C139.018 113.7 144.493 112.25 148.593 109.35C152.743 106.4 155.743 102.4 157.593 97.35C159.443 92.3 160.368 86.6 160.368 80.25H160.668V114H80.4176ZM133.368 72.3C133.368 68.95 132.618 66.05 131.118 63.6C129.618 61.15 127.618 59.275 125.118 57.975C122.668 56.625 120.018 55.95 117.168 55.95H102.168V55.65H117.168C120.018 55.65 122.668 55.05 125.118 53.85C127.618 52.65 129.618 50.9 131.118 48.6C132.618 46.25 133.368 43.4 133.368 40.05H133.668V72.3H133.368Z" fill="url(#paint0_linear_1_2)"/>
<path d="M20.325 113.1L19.9059 114.008L19.9097 114.01L20.325 113.1ZM9.075 104.55L9.84848 103.916L9.03834 102.928L8.27369 103.952L9.075 104.55ZM0.900001 115.5V116.5H1.40137L1.70132 116.098L0.900001 115.5ZM0.600001 115.5H-0.399999V116.5H0.600001V115.5ZM0.600001 84.75V83.75H-0.399999V84.75H0.600001ZM0.900001 84.75L1.88224 84.5624L1.72707 83.75H0.900001V84.75ZM4.8 97.125L3.89168 97.5433L3.89382 97.5479L4.8 97.125ZM11.625 106.95L10.9179 107.657L10.9242 107.663L11.625 106.95ZM21.9 113.475L21.5387 114.407L21.5426 114.409L21.9 113.475ZM50.1 112.95L49.6709 112.047L49.6709 112.047L50.1 112.95ZM59.475 104.55L60.3294 105.07L60.3325 105.064L59.475 104.55ZM59.55 79.575L58.739 80.16L58.739 80.16L59.55 79.575ZM50.85 71.625L50.32 72.473L50.32 72.473L50.85 71.625ZM38.925 65.325L38.512 66.2357L38.5159 66.2375L38.925 65.325ZM25.95 59.25L25.5112 60.1486L25.5153 60.1506L25.95 59.25ZM14.1 51.975L13.486 52.7644L13.493 52.7697L14.1 51.975ZM5.4 41.925L6.27098 41.4337L6.27098 41.4337L5.4 41.925ZM6.375 13.275L5.5521 12.7068L5.55067 12.7089L6.375 13.275ZM17.775 3.525L18.2146 4.42325L18.2222 4.41942L17.775 3.525ZM46.95 2.4L46.5865 3.33157L46.5865 3.33158L46.95 2.4ZM57.45 9.9L56.6892 10.5489L57.466 11.4597L58.224 10.5332L57.45 9.9ZM65.55 -7.51019e-06V-1.00001H65.0761L64.776 -0.633245L65.55 -7.51019e-06ZM65.85 -7.51019e-06H66.85V-1.00001H65.85V-7.51019e-06ZM65.85 30.75V31.75H66.85V30.75H65.85ZM65.55 30.75L64.5602 30.8924L64.6836 31.75H65.55V30.75ZM59.775 13.65L58.9286 14.1826L58.9329 14.1893L59.775 13.65ZM49.125 3.82499L48.6778 4.71946L48.6862 4.72356L49.125 3.82499ZM18.225 6L18.9125 6.72622L18.9175 6.72138L18.225 6ZM15.825 30.375L15.0318 30.984L15.0372 30.9909L15.825 30.375ZM24.3 37.725L23.7766 38.5771L23.7855 38.5825L24.3 37.725ZM35.85 43.8L35.4289 44.707L35.4354 44.71L35.4419 44.7129L35.85 43.8ZM48.525 50.025L48.0528 50.9065L48.059 50.9098L48.0653 50.9131L48.525 50.025ZM68.625 68.7L67.7327 69.1514L67.7349 69.1557L68.625 68.7ZM67.65 101.025L68.5138 101.529L68.516 101.525L67.65 101.025ZM55.65 112.275L56.1075 113.164L56.1108 113.162L55.65 112.275ZM37.35 115.25C30.6977 115.25 25.174 114.214 20.7403 112.19L19.9097 114.01C24.676 116.186 30.5023 117.25 37.35 117.25V115.25ZM20.7441 112.192C16.3207 110.15 12.6954 107.39 9.84848 103.916L8.30152 105.184C11.3546 108.91 15.2293 111.85 19.9059 114.008L20.7441 112.192ZM8.27369 103.952L0.0986853 114.902L1.70132 116.098L9.87632 105.148L8.27369 103.952ZM0.900001 114.5H0.600001V116.5H0.900001V114.5ZM1.6 115.5V84.75H-0.399999V115.5H1.6ZM0.600001 85.75H0.900001V83.75H0.600001V85.75ZM-0.0822413 84.9376C0.781716 89.4607 2.10512 93.6639 3.89169 97.5433L5.70831 96.7067C3.99488 92.9861 2.71829 88.9393 1.88224 84.5624L-0.0822413 84.9376ZM3.89382 97.5479C5.69086 101.399 8.0318 104.771 10.9179 107.657L12.3321 106.243C9.6182 103.529 7.40914 100.351 5.70618 96.7021L3.89382 97.5479ZM10.9242 107.663C13.8783 110.566 17.4213 112.812 21.5387 114.407L22.2613 112.543C18.3787 111.038 15.0718 108.934 12.3258 106.237L10.9242 107.663ZM21.5426 114.409C25.7318 116.012 30.608 116.8 36.15 116.8V114.8C30.7921 114.8 26.1682 114.038 22.2574 112.541L21.5426 114.409ZM36.15 116.8C41.5696 116.8 46.3712 115.828 50.5291 113.853L49.6709 112.047C45.8288 113.872 41.3304 114.8 36.15 114.8V116.8ZM50.5291 113.853C54.701 111.872 57.9757 108.94 60.3294 105.07L58.6206 104.03C56.4743 107.56 53.499 110.228 49.6709 112.047L50.5291 113.853ZM60.3325 105.064C62.6962 101.125 63.85 96.337 63.85 90.75H61.85C61.85 96.063 60.7538 100.475 58.6175 104.036L60.3325 105.064ZM63.85 90.75C63.85 86.1768 62.7038 82.2379 60.361 78.99L58.739 80.16C60.7962 83.0121 61.85 86.5232 61.85 90.75H63.85ZM60.361 78.99C58.0761 75.8223 55.0757 73.0868 51.38 70.777L50.32 72.473C53.8243 74.6632 56.6239 77.2277 58.739 80.16L60.361 78.99ZM51.38 70.777C47.7368 68.5 43.7208 66.379 39.3341 64.4125L38.5159 66.2375C42.8292 68.171 46.7632 70.25 50.32 72.473L51.38 70.777ZM39.338 64.4143C35.0455 62.4676 30.7277 60.446 26.3848 58.3494L25.5153 60.1506C29.8723 62.2539 34.2045 64.2823 38.512 66.2357L39.338 64.4143ZM26.3888 58.3514C22.1449 56.2788 18.2517 53.888 14.707 51.1803L13.493 52.7697C17.1483 55.562 21.1551 58.0212 25.5112 60.1486L26.3888 58.3514ZM14.7139 51.1856C11.2165 48.4654 8.40466 45.2161 6.27098 41.4337L4.52902 42.4163C6.79534 46.4339 9.78347 49.8846 13.4861 52.7644L14.7139 51.1856ZM6.27098 41.4337C4.17355 37.7155 3.1 33.1686 3.1 27.75H1.1C1.1 33.4314 2.22645 38.3345 4.52902 42.4163L6.27098 41.4337ZM3.1 27.75C3.1 22.4325 4.47435 17.8091 7.19933 13.8411L5.55067 12.7089C2.57565 17.0409 1.1 22.0674 1.1 27.75H3.1ZM7.1979 13.8432C9.99798 9.7879 13.6645 6.64986 18.2146 4.42321L17.3354 2.62678C12.4855 5.00013 8.55202 8.3621 5.5521 12.7068L7.1979 13.8432ZM18.2222 4.41942C22.7756 2.14275 27.7463 0.999992 33.15 0.999992V-1.00001C27.4537 -1.00001 22.1744 0.207241 17.3278 2.63057L18.2222 4.41942ZM33.15 0.999992C38.1451 0.999992 42.6192 1.78337 46.5865 3.33157L47.3135 1.46842C43.0808 -0.183378 38.3549 -1.00001 33.15 -1.00001V0.999992ZM46.5865 3.33158C50.5303 4.87063 53.8945 7.27247 56.6892 10.5489L58.2108 9.25105C55.2055 5.72752 51.5697 3.12936 47.3135 1.46842L46.5865 3.33158ZM58.224 10.5332L66.324 0.63323L64.776 -0.633245L56.676 9.26676L58.224 10.5332ZM65.55 0.999992H65.85V-1.00001H65.55V0.999992ZM64.85 -7.51019e-06V30.75H66.85V-7.51019e-06H64.85ZM65.85 29.75H65.55V31.75H65.85V29.75ZM66.5398 30.6076C65.5258 23.5604 63.565 17.7136 60.6171 13.1107L58.9329 14.1893C61.685 18.4864 63.5742 24.0395 64.5602 30.8924L66.5398 30.6076ZM60.6214 13.1174C57.7324 8.52596 54.0474 5.11607 49.5638 2.92643L48.6862 4.72356C52.8026 6.73392 56.2176 9.87404 58.9286 14.1826L60.6214 13.1174ZM49.5722 2.93057C45.1183 0.703621 40.1375 -0.400006 34.65 -0.400006V1.59999C39.8625 1.59999 44.5317 2.64637 48.6778 4.71942L49.5722 2.93057ZM34.65 -0.400006C27.2925 -0.400006 21.5305 1.44052 17.5325 5.27861L18.9175 6.72138C22.4195 3.35947 27.6075 1.59999 34.65 1.59999V-0.400006ZM17.5375 5.27379C13.5571 9.04194 11.6 14.071 11.6 20.25H13.6C13.6 14.529 15.3929 10.058 18.9125 6.7262L17.5375 5.27379ZM11.6 20.25C11.6 24.3927 12.7318 27.9886 15.0319 30.984L16.6182 29.766C14.6182 27.1613 13.6 24.0073 13.6 20.25H11.6ZM15.0372 30.9909C17.2723 33.8497 20.1927 36.3755 23.7766 38.5771L24.8234 36.8729C21.4073 34.7745 18.6777 32.4003 16.6128 29.7591L15.0372 30.9909ZM23.7855 38.5825C27.3194 40.7028 31.2011 42.7441 35.4289 44.707L36.2711 42.893C32.0989 40.9559 28.2806 38.9471 24.8145 36.8675L23.7855 38.5825ZM35.4419 44.7129C39.6696 46.603 43.8733 48.6675 48.0528 50.9065L48.9972 49.1435C44.7767 46.8825 40.5304 44.797 36.2581 42.8871L35.4419 44.7129ZM48.0653 50.9131C52.2495 53.079 56.0599 55.6363 59.4992 58.5843L60.8008 57.0657C57.2401 54.0137 53.3005 51.371 48.9847 49.1369L48.0653 50.9131ZM59.4992 58.5843C62.8959 61.4957 65.6401 65.0149 67.7327 69.1514L69.5173 68.2486C67.3099 63.8851 64.4041 60.1543 60.8008 57.0657L59.4992 58.5843ZM67.7349 69.1557C69.7957 73.1815 70.85 78.1166 70.85 84H72.85C72.85 77.8834 71.7543 72.6184 69.5152 68.2443L67.7349 69.1557ZM70.85 84C70.85 90.353 69.483 95.85 66.784 100.525L68.516 101.525C71.417 96.5 72.85 90.647 72.85 84H70.85ZM66.7862 100.521C64.0868 105.149 60.2309 108.77 55.1892 111.388L56.1108 113.162C61.4692 110.38 65.6132 106.501 68.5138 101.529L66.7862 100.521ZM55.1925 111.386C50.2115 113.949 44.275 115.25 37.35 115.25V117.25C44.525 117.25 50.7885 115.901 56.1075 113.164L55.1925 111.386ZM80.4176 114H79.4176V115H80.4176V114ZM80.4176 113.7V112.7H79.4176V113.7H80.4176ZM93.8426 113.7V114.7H94.8426V113.7H93.8426ZM93.8426 1.8H94.8426V0.799996H93.8426V1.8ZM80.4176 1.8H79.4176V2.8H80.4176V1.8ZM80.4176 1.49999V0.499991H79.4176V1.49999H80.4176ZM159.093 1.49999H160.093V0.499991H159.093V1.49999ZM159.093 32.25V33.25H160.093V32.25H159.093ZM158.868 32.25H157.868V33.25H158.868V32.25ZM156.243 17.325L155.307 17.6772L155.308 17.6806L156.243 17.325ZM147.993 6.075L147.382 6.86724L147.387 6.87116L147.993 6.075ZM108.168 1.8V0.799996H107.168V1.8H108.168ZM108.168 113.7H107.168V114.7H108.168V113.7ZM148.593 109.35L149.17 110.166L149.172 110.165L148.593 109.35ZM157.593 97.35L158.532 97.694L158.532 97.694L157.593 97.35ZM160.368 80.25V79.25H159.368V80.25H160.368ZM160.668 80.25H161.668V79.25H160.668V80.25ZM160.668 114V115H161.668V114H160.668ZM133.368 72.3H132.368V73.3H133.368V72.3ZM131.118 63.6L131.97 63.0778L131.97 63.0778L131.118 63.6ZM125.118 57.975L124.635 58.8508L124.646 58.8567L124.656 58.8622L125.118 57.975ZM102.168 55.95H101.168V56.95H102.168V55.95ZM102.168 55.65V54.65H101.168V55.65H102.168ZM125.118 53.85L124.685 52.9484L124.678 52.9519L125.118 53.85ZM131.118 48.6L131.955 49.1463L131.961 49.138L131.118 48.6ZM133.368 40.05V39.05H132.368V40.05H133.368ZM133.668 40.05H134.668V39.05H133.668V40.05ZM133.668 72.3V73.3H134.668V72.3H133.668ZM81.4176 114V113.7H79.4176V114H81.4176ZM80.4176 114.7H93.8426V112.7H80.4176V114.7ZM94.8426 113.7V1.8H92.8426V113.7H94.8426ZM93.8426 0.799996H80.4176V2.8H93.8426V0.799996ZM81.4176 1.8V1.49999H79.4176V1.8H81.4176ZM80.4176 2.49999H159.093V0.499991H80.4176V2.49999ZM158.093 1.49999V32.25H160.093V1.49999H158.093ZM159.093 31.25H158.868V33.25H159.093V31.25ZM159.868 32.25C159.868 26.7891 158.974 21.6925 157.177 16.9694L155.308 17.6806C157.011 22.1575 157.868 27.0109 157.868 32.25H159.868ZM157.179 16.9728C155.366 12.1567 152.506 8.2491 148.598 5.27884L147.387 6.87116C150.979 9.6009 153.619 13.1933 155.307 17.6772L157.179 16.9728ZM148.603 5.28277C144.688 2.2671 139.682 0.799996 133.668 0.799996V2.8C139.354 2.8 143.897 4.18289 147.382 6.86722L148.603 5.28277ZM133.668 0.799996H108.168V2.8H133.668V0.799996ZM107.168 1.8V113.7H109.168V1.8H107.168ZM108.168 114.7H132.168V112.7H108.168V114.7ZM132.168 114.7C139.151 114.7 144.85 113.222 149.17 110.166L148.015 108.534C144.136 111.278 138.884 112.7 132.168 112.7V114.7ZM149.172 110.165C153.496 107.091 156.616 102.922 158.532 97.694L156.654 97.006C154.869 101.878 151.989 105.709 148.013 108.535L149.172 110.165ZM158.532 97.694C160.428 92.5159 161.368 86.6966 161.368 80.25H159.368C159.368 86.5034 158.457 92.0841 156.654 97.006L158.532 97.694ZM160.368 81.25H160.668V79.25H160.368V81.25ZM159.668 80.25V114H161.668V80.25H159.668ZM160.668 113H80.4176V115H160.668V113ZM134.368 72.3C134.368 68.7968 133.582 65.7096 131.97 63.0778L130.265 64.1221C131.653 66.3904 132.368 69.1032 132.368 72.3H134.368ZM131.97 63.0778C130.377 60.476 128.243 58.4733 125.579 57.0878L124.656 58.8622C126.992 60.0767 128.858 61.824 130.265 64.1222L131.97 63.0778ZM125.6 57.0992C122.999 55.6661 120.183 54.95 117.168 54.95V56.95C119.852 56.95 122.336 57.5839 124.635 58.8508L125.6 57.0992ZM117.168 54.95H102.168V56.95H117.168V54.95ZM103.168 55.95V55.65H101.168V55.95H103.168ZM102.168 56.65H117.168V54.65H102.168V56.65ZM117.168 56.65C120.163 56.65 122.964 56.0181 125.557 54.7481L124.678 52.9519C122.371 54.0818 119.872 54.65 117.168 54.65V56.65ZM125.55 54.7515C128.213 53.4732 130.354 51.6011 131.955 49.1463L130.28 48.0537C128.881 50.1989 127.022 51.8268 124.685 52.9485L125.55 54.7515ZM131.961 49.138C133.582 46.5975 134.368 43.5518 134.368 40.05H132.368C132.368 43.2482 131.653 45.9025 130.275 48.062L131.961 49.138ZM133.368 41.05H133.668V39.05H133.368V41.05ZM132.668 40.05V72.3H134.668V40.05H132.668ZM133.668 71.3H133.368V73.3H133.668V71.3Z" fill="#3683CA"/>
<defs>
<linearGradient id="paint0_linear_1_2" x1="79.5" y1="-55" x2="79.5" y2="174" gradientUnits="userSpaceOnUse">
<stop stop-color="#7F9AE1"/>
<stop offset="1" stop-color="#FF8686"/>
</linearGradient>
</defs>
</svg>
