<svg width="160" height="97" viewBox="0 0 160 97" fill="none" xmlns="http://www.w3.org/2000/svg">
<path d="M13.5 96.8V83.45H3.57628e-07V66.5H16.5V80H54V56.75H13.5V43.4H3.57628e-07V13.4H13.5V0.0499976H57V13.4H70.65V30.2H54V17H16.5V40.1H57V53.15H70.65V83.45H57V96.8H13.5ZM102.27 96.8V83.45H88.7695V13.4H102.27V0.0499976H145.77V13.4H159.42V30.2H142.77V17H105.27V40.1H132.27V56.75H105.27V80H142.77V66.5H159.42V83.45H145.77V96.8H102.27Z" fill="white"/>
<path d="M13.5 96.8H12.5V97.8H13.5V96.8ZM13.5 83.45H14.5V82.45H13.5V83.45ZM3.57628e-07 83.45H-1V84.45H3.57628e-07V83.45ZM3.57628e-07 66.5V65.5H-1V66.5H3.57628e-07ZM16.5 66.5H17.5V65.5H16.5V66.5ZM16.5 80H15.5V81H16.5V80ZM54 80V81H55V80H54ZM54 56.75H55V55.75H54V56.75ZM13.5 56.75H12.5V57.75H13.5V56.75ZM13.5 43.4H14.5V42.4H13.5V43.4ZM3.57628e-07 43.4H-1V44.4H3.57628e-07V43.4ZM3.57628e-07 13.4V12.4H-1V13.4H3.57628e-07ZM13.5 13.4V14.4H14.5V13.4H13.5ZM13.5 0.0499976V-0.950002H12.5V0.0499976H13.5ZM57 0.0499976H58V-0.950002H57V0.0499976ZM57 13.4H56V14.4H57V13.4ZM70.65 13.4H71.65V12.4H70.65V13.4ZM70.65 30.2V31.2H71.65V30.2H70.65ZM54 30.2H53V31.2H54V30.2ZM54 17H55V16H54V17ZM16.5 17V16H15.5V17H16.5ZM16.5 40.1H15.5V41.1H16.5V40.1ZM57 40.1H58V39.1H57V40.1ZM57 53.15H56V54.15H57V53.15ZM70.65 53.15H71.65V52.15H70.65V53.15ZM70.65 83.45V84.45H71.65V83.45H70.65ZM57 83.45V82.45H56V83.45H57ZM57 96.8V97.8H58V96.8H57ZM14.5 96.8V83.45H12.5V96.8H14.5ZM13.5 82.45H3.57628e-07V84.45H13.5V82.45ZM1 83.45V66.5H-1V83.45H1ZM3.57628e-07 67.5H16.5V65.5H3.57628e-07V67.5ZM15.5 66.5V80H17.5V66.5H15.5ZM16.5 81H54V79H16.5V81ZM55 80V56.75H53V80H55ZM54 55.75H13.5V57.75H54V55.75ZM14.5 56.75V43.4H12.5V56.75H14.5ZM13.5 42.4H3.57628e-07V44.4H13.5V42.4ZM1 43.4V13.4H-1V43.4H1ZM3.57628e-07 14.4H13.5V12.4H3.57628e-07V14.4ZM14.5 13.4V0.0499976H12.5V13.4H14.5ZM13.5 1.05H57V-0.950002H13.5V1.05ZM56 0.0499976V13.4H58V0.0499976H56ZM57 14.4H70.65V12.4H57V14.4ZM69.65 13.4V30.2H71.65V13.4H69.65ZM70.65 29.2H54V31.2H70.65V29.2ZM55 30.2V17H53V30.2H55ZM54 16H16.5V18H54V16ZM15.5 17V40.1H17.5V17H15.5ZM16.5 41.1H57V39.1H16.5V41.1ZM56 40.1V53.15H58V40.1H56ZM57 54.15H70.65V52.15H57V54.15ZM69.65 53.15V83.45H71.65V53.15H69.65ZM70.65 82.45H57V84.45H70.65V82.45ZM56 83.45V96.8H58V83.45H56ZM57 95.8H13.5V97.8H57V95.8ZM102.27 96.8H101.27V97.8H102.27V96.8ZM102.27 83.45H103.27V82.45H102.27V83.45ZM88.7695 83.45H87.7695V84.45H88.7695V83.45ZM88.7695 13.4V12.4H87.7695V13.4H88.7695ZM102.27 13.4V14.4H103.27V13.4H102.27ZM102.27 0.0499976V-0.950002H101.27V0.0499976H102.27ZM145.77 0.0499976H146.77V-0.950002H145.77V0.0499976ZM145.77 13.4H144.77V14.4H145.77V13.4ZM159.42 13.4H160.42V12.4H159.42V13.4ZM159.42 30.2V31.2H160.42V30.2H159.42ZM142.77 30.2H141.77V31.2H142.77V30.2ZM142.77 17H143.77V16H142.77V17ZM105.27 17V16H104.27V17H105.27ZM105.27 40.1H104.27V41.1H105.27V40.1ZM132.27 40.1H133.27V39.1H132.27V40.1ZM132.27 56.75V57.75H133.27V56.75H132.27ZM105.27 56.75V55.75H104.27V56.75H105.27ZM105.27 80H104.27V81H105.27V80ZM142.77 80V81H143.77V80H142.77ZM142.77 66.5V65.5H141.77V66.5H142.77ZM159.42 66.5H160.42V65.5H159.42V66.5ZM159.42 83.45V84.45H160.42V83.45H159.42ZM145.77 83.45V82.45H144.77V83.45H145.77ZM145.77 96.8V97.8H146.77V96.8H145.77ZM103.27 96.8V83.45H101.27V96.8H103.27ZM102.27 82.45H88.7695V84.45H102.27V82.45ZM89.7695 83.45V13.4H87.7695V83.45H89.7695ZM88.7695 14.4H102.27V12.4H88.7695V14.4ZM103.27 13.4V0.0499976H101.27V13.4H103.27ZM102.27 1.05H145.77V-0.950002H102.27V1.05ZM144.77 0.0499976V13.4H146.77V0.0499976H144.77ZM145.77 14.4H159.42V12.4H145.77V14.4ZM158.42 13.4V30.2H160.42V13.4H158.42ZM159.42 29.2H142.77V31.2H159.42V29.2ZM143.77 30.2V17H141.77V30.2H143.77ZM142.77 16H105.27V18H142.77V16ZM104.27 17V40.1H106.27V17H104.27ZM105.27 41.1H132.27V39.1H105.27V41.1ZM131.27 40.1V56.75H133.27V40.1H131.27ZM132.27 55.75H105.27V57.75H132.27V55.75ZM104.27 56.75V80H106.27V56.75H104.27ZM105.27 81H142.77V79H105.27V81ZM143.77 80V66.5H141.77V80H143.77ZM142.77 67.5H159.42V65.5H142.77V67.5ZM158.42 66.5V83.45H160.42V66.5H158.42ZM159.42 82.45H145.77V84.45H159.42V82.45ZM144.77 83.45V96.8H146.77V83.45H144.77ZM145.77 95.8H102.27V97.8H145.77V95.8Z" fill="#714F4F"/>
</svg>
