<svg width="154" height="80" viewBox="0 0 154 80" fill="none" xmlns="http://www.w3.org/2000/svg">
<path d="M18.4707 79.75C12.6374 79.75 8.2207 78.6667 5.2207 76.5C2.2207 74.3333 0.720701 71.4167 0.720701 67.75C0.720701 65.0833 1.63737 62.75 3.4707 60.75C5.13737 58.5833 7.13737 56.9167 9.4707 55.75C11.804 54.4167 13.6374 53.75 14.9707 53.75C16.804 53.75 18.054 54.1667 18.7207 55C19.2207 55.6667 19.4707 56.4167 19.4707 57.25C19.4707 58.5833 18.7207 59.6667 17.2207 60.5C15.554 61.3333 14.2207 61.75 13.2207 61.75C12.054 61.75 11.054 61.4167 10.2207 60.75C9.2207 59.9167 8.7207 59.5 8.7207 59.5C7.88737 59.6667 6.7207 60.5833 5.2207 62.25C3.7207 63.9167 2.9707 65.75 2.9707 67.75C2.9707 69.75 4.05404 71.6667 6.2207 73.5C8.38737 75.3333 11.8874 76.25 16.7207 76.25C21.7207 76.25 26.4707 74.5833 30.9707 71.25C35.6374 67.9167 39.4707 63.6667 42.4707 58.5C45.4707 53.3333 46.9707 48.0833 46.9707 42.75C46.9707 40.9167 46.9707 38.5 46.9707 35.5C46.9707 32.3333 46.9707 29.75 46.9707 27.75C46.9707 25.25 47.3874 22.4167 48.2207 19.25C49.054 15.9167 49.9707 12.8333 50.9707 10C52.1374 7.16667 53.054 5.41667 53.7207 4.75C55.054 3.58333 56.054 3.25 56.7207 3.75C57.3874 4.24999 57.554 4.75 57.2207 5.25C57.054 5.41666 55.9707 6.75 53.9707 9.25C51.9707 11.5833 49.4707 14.5 46.4707 18C43.4707 21.5 40.4707 25 37.4707 28.5C34.4707 32 31.804 35.0833 29.4707 37.75C27.304 40.4167 26.054 42 25.7207 42.5C24.8874 43.6667 24.1374 43.9167 23.4707 43.25C22.804 42.5833 22.9707 41.75 23.9707 40.75C25.804 38.4167 28.054 35.6667 30.7207 32.5C33.554 29.1667 36.3874 25.9167 39.2207 22.75C42.054 19.5833 44.4707 16.9167 46.4707 14.75C48.6374 12.4167 49.804 11.0833 49.9707 10.75C50.4707 10.0833 50.8874 8.91667 51.2207 7.25C51.7207 5.58333 52.304 4 52.9707 2.5C53.804 0.999996 54.804 0.249996 55.9707 0.249996C58.804 0.249996 60.2207 1.25 60.2207 3.24999C60.2207 4.75 59.054 6.58333 56.7207 8.75C54.554 10.9167 53.304 12.6667 52.9707 14C52.4707 16 52.4707 18.8333 52.9707 22.5C53.6374 26 54.304 30 54.9707 34.5C55.804 39 56.2207 43.75 56.2207 48.75C56.2207 55.4167 54.8874 60.8333 52.2207 65C49.554 69 46.2207 72.0833 42.2207 74.25C38.2207 76.4167 34.054 77.8333 29.7207 78.5C25.554 79.3333 21.804 79.75 18.4707 79.75ZM56.9707 62.5C52.6374 62.5 49.804 61.6667 48.4707 60C47.304 58.3333 46.8874 56.4167 47.2207 54.25C47.7207 51.9167 48.304 49.8333 48.9707 48L51.4707 48.25C50.9707 49.9167 50.4707 51.6667 49.9707 53.5C49.6374 55.3333 49.8874 56.9167 50.7207 58.25C51.554 59.5833 53.7207 60.25 57.2207 60.25C59.7207 60.25 62.554 59.0833 65.7207 56.75C68.8874 54.4167 71.9707 51.5833 74.9707 48.25C78.1374 44.9167 80.804 41.6667 82.9707 38.5L85.2207 40.25C83.054 42.9167 80.3874 46 77.2207 49.5C74.2207 53 70.9707 56.0833 67.4707 58.75C63.9707 61.25 60.4707 62.5 56.9707 62.5ZM97.1172 76.25C89.2839 76.25 84.1172 74.5 81.6172 71C79.1172 67.3333 77.8672 63.5 77.8672 59.5C77.8672 52.6667 79.6172 46.3333 83.1172 40.5C86.6172 34.5 91.1172 29.1667 96.6172 24.5C102.117 19.8333 107.784 16.25 113.617 13.75C119.617 11.0833 124.951 9.75 129.617 9.75C132.951 9.75 135.617 10.25 137.617 11.25C139.617 12.0833 140.617 13.9167 140.617 16.75C140.617 19.4167 139.034 22.25 135.867 25.25C132.701 28.25 128.701 31.1667 123.867 34C119.034 36.6667 113.951 39.1667 108.617 41.5C103.451 43.6667 98.7005 45.4167 94.3672 46.75C90.0339 48.0833 86.8672 48.75 84.8672 48.75C84.8672 48.75 84.8672 48.3333 84.8672 47.5C84.8672 46.5 84.8672 46 84.8672 46C86.3672 46.1667 88.9505 45.6667 92.6172 44.5C96.4505 43.3333 100.701 41.8333 105.367 40C110.034 38 114.534 35.75 118.867 33.25C123.367 30.75 127.034 28.0833 129.867 25.25C132.867 22.4167 134.367 19.6667 134.367 17C134.367 15.6667 133.951 14.5 133.117 13.5C132.451 12.5 131.201 12 129.367 12C126.701 12 123.451 13.3333 119.617 16C115.951 18.5 112.201 21.8333 108.367 26C104.534 30.1667 100.951 34.5833 97.6172 39.25C94.2839 43.9167 91.5339 48.4167 89.3672 52.75C87.3672 56.9167 86.3672 60.4167 86.3672 63.25C86.3672 66.5833 87.3672 69.0833 89.3672 70.75C91.3672 72.4167 94.2839 73.25 98.1172 73.25C104.784 73.25 111.034 71.6667 116.867 68.5C122.867 65.1667 128.284 61.3333 133.117 57C137.951 52.5 142.034 48.3333 145.367 44.5C148.701 40.5 150.951 37.9167 152.117 36.75C152.117 36.75 152.367 37 152.867 37.5C153.534 38 153.867 38.25 153.867 38.25C152.701 39.5833 150.451 42.25 147.117 46.25C143.784 50.25 139.617 54.5833 134.617 59.25C129.617 63.9167 123.951 67.9167 117.617 71.25C111.284 74.5833 104.451 76.25 97.1172 76.25Z" fill="url(#paint0_linear_232_35)"/>
<defs>
<linearGradient id="paint0_linear_232_35" x1="38.5" y1="-310.411" x2="301.781" y2="-179.308" gradientUnits="userSpaceOnUse">
<stop stop-color="#CB7AE7"/>
<stop offset="1" stop-color="#2283BA" stop-opacity="0"/>
</linearGradient>
</defs>
</svg>
