<svg width="66" height="63" viewBox="0 0 66 63" fill="none" xmlns="http://www.w3.org/2000/svg">
<g id="twitter svg">
<g id="Group">
<path id="XMLID_693_" d="M33 62C15.3264 62 1 48.3451 1 31.5C1 14.6562 15.3264 1 33 1C50.6722 1 65 14.6549 65 31.5C65 48.3451 50.6722 62 33 62Z" stroke="#1591EB" stroke-width="0.4321" stroke-miterlimit="10"/>
</g>
<path id="XMLID_670_" d="M17.8848 41.7857C20.6299 43.4635 23.8903 44.4429 27.393 44.4429C38.9096 44.4429 45.4165 35.1716 45.0239 26.8561C46.236 26.0237 47.287 24.9826 48.1189 23.7958C47.006 24.2658 45.8104 24.5835 44.557 24.7266C45.8366 23.9967 46.8201 22.8374 47.2829 21.4563C46.0845 22.1338 44.7567 22.6261 43.3448 22.8913C42.2126 21.7425 40.601 21.0244 38.8159 21.0244C34.8131 21.0244 31.8696 24.5848 32.7732 28.2844C27.6176 28.0376 23.0473 25.6837 19.9881 22.1062C18.3627 24.7647 19.1451 28.2411 21.9082 30.0003C20.8903 29.9701 19.933 29.7023 19.0969 29.2599C19.0294 31.9998 21.0886 34.5612 24.0721 35.1322C23.1988 35.3594 22.2429 35.4106 21.2718 35.2333C22.0597 37.5833 24.3503 39.2913 27.0652 39.3399C24.4605 41.2869 21.1754 42.1559 17.8848 41.7857Z" fill="#1591EB"/>
</g>
</svg>
